<svg xmlns="http://www.w3.org/2000/svg" width="32" height="32" fill="none" xmlns:v="https://vecta.io/nano"><g clip-path="url(#A)"><path d="M19.675 18.602c0-.798.468-1.495 1.018-1.495s1.018.694 1.018 1.495-.468 1.495-1.018 1.495-1.018-.697-1.018-1.495zm-8.373-3.708c.533 0 1.018-.694 1.018-1.495s-.468-1.495-1.018-1.495-1.018.694-1.018 1.495.485 1.495 1.018 1.495zM.715 14.363l.614-.552a2.14 2.14 0 0 0 .657-1.124c.098-.436.059-.892-.11-1.304l-.316-.773a2.17 2.17 0 0 1 .046-1.749c.128-.272.312-.512.538-.706a2.07 2.07 0 0 1 .774-.418l.791-.225a2.08 2.08 0 0 0 1.054-.713c.271-.344.43-.765.456-1.205l.044-.836a2.15 2.15 0 0 1 .646-1.43 2.06 2.06 0 0 1 1.431-.585c.124 0 .248.012.37.035l.808.149c.429.078.872.017 1.265-.175s.718-.506.928-.896l.39-.749c.142-.266.338-.497.575-.679a2.06 2.06 0 0 1 .798-.376c.289-.066.589-.067.879-.005a2.06 2.06 0 0 1 .802.366l.679.489c.354.26.779.4 1.215.4s.861-.14 1.215-.4l.679-.486a2.06 2.06 0 0 1 .806-.36 2.04 2.04 0 0 1 .88.012c.289.068.561.198.797.382s.431.417.571.684l.39.735a2.11 2.11 0 0 0 .766.816 2.05 2.05 0 0 0 1.067.301c.114-.001.227-.011.339-.031l.777-.135c.119-.021.239-.031.36-.031a2.06 2.06 0 0 1 1.436.59 2.15 2.15 0 0 1 .642 1.439l.037.836a2.16 2.16 0 0 0 .449 1.221c.271.349.642.603 1.062.725l.787.229a2.07 2.07 0 0 1 .776.418c.227.194.41.435.539.708a2.17 2.17 0 0 1 .043 1.753l-.319.77c-.171.411-.211.867-.115 1.303a2.14 2.14 0 0 0 .651 1.126l.611.555a2.13 2.13 0 0 1 .52.721 2.17 2.17 0 0 1 0 1.75 2.13 2.13 0 0 1-.52.721l-.614.552a2.14 2.14 0 0 0-.657 1.124c-.098.436-.059.892.11 1.304l.316.774a2.17 2.17 0 0 1-.046 1.749c-.128.271-.312.512-.538.706a2.07 2.07 0 0 1-.774.418l-.791.226a2.08 2.08 0 0 0-1.07.7c-.277.341-.442.763-.474 1.205l-.044.836a2.15 2.15 0 0 1-.646 1.43 2.06 2.06 0 0 1-1.801.55l-.811-.132a2.04 2.04 0 0 0-1.265.175 2.1 2.1 0 0 0-.927.897l-.387.732c-.142.265-.338.497-.575.679a2.06 2.06 0 0 1-.798.376 2.04 2.04 0 0 1-.879.005 2.06 2.06 0 0 1-.802-.366l-.679-.489c-.354-.26-.779-.399-1.215-.399s-.861.14-1.215.399l-.679.486a2.06 2.06 0 0 1-.806.362c-.291.06-.591.056-.881-.011a2.06 2.06 0 0 1-.797-.383c-.236-.184-.431-.418-.571-.686l-.39-.735c-.207-.392-.53-.708-.922-.902s-.834-.259-1.264-.184l-.764.135c-.119.021-.239.031-.36.031a2.06 2.06 0 0 1-1.436-.59 2.15 2.15 0 0 1-.642-1.439l-.041-.836a2.16 2.16 0 0 0-.449-1.221 2.08 2.08 0 0 0-1.062-.725l-.787-.229a2.07 2.07 0 0 1-.776-.418c-.227-.194-.41-.436-.539-.708a2.17 2.17 0 0 1-.043-1.753l.319-.77c.171-.411.211-.867.115-1.302a2.14 2.14 0 0 0-.651-1.126l-.611-.555a2.13 2.13 0 0 1-.506-.725 2.17 2.17 0 0 1 .02-1.741c.123-.272.301-.515.523-.712zm16.798 4.239c0 2.043 1.419 3.708 3.163 3.708s3.163-1.662 3.163-3.708-1.402-3.708-3.163-3.708-3.163 1.665-3.163 3.708zm-5.597 2.577a1.12 1.12 0 0 0-.183.425 1.13 1.13 0 0 0 .004.464 1.12 1.12 0 0 0 .19.422 1.09 1.09 0 0 0 .342.305c.134.076.282.122.435.135a1.06 1.06 0 0 0 .451-.059 1.08 1.08 0 0 0 .387-.243c.111-.108.198-.239.255-.384l6.266-11.423a1.12 1.12 0 0 0 .183-.425 1.13 1.13 0 0 0-.004-.464c-.033-.153-.098-.297-.19-.422a1.09 1.09 0 0 0-.342-.305c-.134-.076-.282-.122-.435-.135a1.06 1.06 0 0 0-.451.059 1.08 1.08 0 0 0-.387.243 1.11 1.11 0 0 0-.255.384l-6.266 11.423zm-3.781-7.78c0 2.043 1.419 3.708 3.163 3.708s3.163-1.662 3.163-3.708-1.419-3.708-3.163-3.708-3.163 1.665-3.163 3.708z" fill="#000"/></g><defs fill="#000"><clipPath id="A" fill="#000"><path fill="#000" d="M0 0h32v32H0z"/></clipPath></defs></svg>