<svg width="500" height="500" viewBox="0 0 500 500" fill="none" xmlns="http://www.w3.org/2000/svg">
<path d="M436.604 423.598C423.685 436.898 412.126 444.716 403.276 450.618C316.962 508.18 218.296 491.589 187.791 485.919C138.574 476.77 97.0291 470.316 61.3342 438.106C-19.7754 364.918 -15.8304 212.24 46.1472 117.663C53.4959 106.449 115.38 14.8311 214.259 1.92145C216.678 1.60574 218.482 1.42592 220.063 1.25878C235.359 -0.358724 330.149 -8.89587 407.44 55.7788C418.504 65.0366 436.309 81.7354 452.82 107.204C513.191 200.328 513.383 344.556 436.604 423.598Z" fill="url(#paint0_linear_180133_38654)"/>
<g opacity="0.3">
<path d="M122.549 76.9219C122.036 77.7693 120.932 78.0403 120.084 77.5278C118.437 76.5326 116.722 75.5937 114.986 74.7378C114.108 74.3048 113.742 73.25 114.157 72.3687C114.161 72.3582 114.166 72.3478 114.171 72.3371C114.61 71.4496 115.687 71.0857 116.575 71.5241C118.402 72.4251 120.208 73.4132 121.942 74.4612C122.735 74.9401 123.024 75.9357 122.638 76.7553C122.611 76.8117 122.582 76.8676 122.549 76.9219ZM106.252 71.1503C104.417 70.5389 102.538 70.0001 100.667 69.5487C99.7039 69.3166 99.1111 68.3484 99.3435 67.386C99.5802 66.421 100.546 65.8323 101.51 66.0648C103.479 66.5396 105.457 67.1066 107.388 67.7496C108.328 68.0628 108.836 69.0782 108.522 70.0171C108.499 70.0853 108.473 70.1514 108.443 70.2148C108.061 71.0251 107.124 71.4407 106.252 71.1503ZM91.3599 67.9789C89.4397 67.7914 87.4881 67.685 85.5581 67.663C84.5674 67.6517 83.773 66.8398 83.7843 65.8503C83.7968 64.8616 84.6082 64.068 85.5992 64.0787C87.6315 64.1019 89.6873 64.2141 91.7089 64.4118C92.6953 64.508 93.4164 65.385 93.3203 66.37C93.2996 66.58 93.2436 66.778 93.1585 66.9585C92.8449 67.6248 92.1358 68.0548 91.3599 67.9789ZM76.1313 68.2137C74.2153 68.4598 72.288 68.7923 70.4022 69.2007C69.4337 69.4103 68.4781 68.7962 68.268 67.8291C68.059 66.8617 68.6739 65.908 69.6413 65.6975C71.627 65.2675 73.6561 64.918 75.6723 64.6582C76.6551 64.5319 77.5548 65.2253 77.6812 66.2069C77.7265 66.5582 77.6667 66.8987 77.5262 67.1971C77.2741 67.7328 76.7622 68.1321 76.1313 68.2137ZM61.3346 71.831C59.5256 72.4944 57.7193 73.2446 55.9666 74.0614C55.068 74.4794 54.0006 74.0914 53.5817 73.1944C53.1624 72.2969 53.5514 71.2305 54.4499 70.813C56.2938 69.9539 58.1945 69.1646 60.0979 68.4666C61.028 68.1251 62.0591 68.6018 62.4006 69.5312C62.5728 69.9994 62.537 70.4932 62.34 70.9116C62.1462 71.3234 61.7961 71.6619 61.3346 71.831ZM47.7082 78.6284C46.0883 79.6762 44.494 80.8067 42.9684 81.9887C42.1855 82.5953 41.0578 82.4532 40.4508 81.6714C39.8431 80.8893 39.9851 79.7637 40.7684 79.1566C42.3735 77.9126 44.0524 76.7228 45.7568 75.6198C46.5887 75.0819 47.6994 75.3189 48.2386 76.1498C48.5887 76.6894 48.6107 77.3466 48.3556 77.8885C48.2179 78.1809 48 78.4396 47.7082 78.6284ZM14.8546 136.53C13.8637 136.517 13.0708 135.705 13.0837 134.715C13.1105 132.687 13.2265 130.633 13.4284 128.611C13.5267 127.625 14.4058 126.907 15.392 127.005C16.3777 127.103 17.0975 127.981 16.9992 128.966C16.8074 130.886 16.6976 132.837 16.6724 134.762C16.6688 135.026 16.6085 135.276 16.5027 135.5C16.2129 136.117 15.5812 136.54 14.8546 136.53ZM35.9363 88.2673C34.5913 89.648 33.2898 91.1039 32.0685 92.5951C31.4406 93.3612 30.3099 93.4741 29.5431 92.8473C28.7757 92.2201 28.667 91.0939 29.291 90.3251C30.5772 88.7551 31.9476 87.2218 33.3644 85.7678C34.0554 85.0585 35.1915 85.0428 35.902 85.7334C36.4654 86.2807 36.5916 87.108 36.2748 87.7807C36.1924 87.9559 36.079 88.1205 35.9363 88.2673ZM16.4215 120.989C15.4589 120.755 14.8683 119.785 15.1027 118.823C15.5835 116.853 16.1558 114.878 16.8025 112.952C17.1138 112.012 18.1352 111.509 19.0748 111.823C20.0142 112.138 20.5201 113.154 20.2051 114.093C19.5903 115.923 19.0464 117.8 18.5901 119.672C18.5609 119.791 18.52 119.905 18.4696 120.012C18.1138 120.767 17.2643 121.194 16.4215 120.989ZM26.6184 100.29C25.6172 101.935 24.6738 103.646 23.8151 105.374C23.3749 106.261 22.2982 106.623 21.4102 106.183C20.5341 105.749 20.1695 104.695 20.584 103.815C20.5893 103.804 20.5949 103.792 20.6008 103.781C21.5042 101.961 22.4972 100.16 23.5507 98.4285C24.0659 97.5828 25.1695 97.3137 26.0166 97.8276C26.8076 98.3075 27.0947 99.3016 26.7094 100.12C26.6822 100.177 26.6516 100.234 26.6184 100.29Z" fill="#91B3FA"/>
<path d="M17.4783 148.048C17.6286 147.729 17.6867 147.362 17.6231 146.987C17.4681 146.076 17.3302 145.147 17.2115 144.224C17.0858 143.243 16.1867 142.549 15.204 142.674C14.2209 142.8 13.5246 143.698 13.6523 144.68C13.7764 145.65 13.9219 146.627 14.0846 147.586C14.2504 148.562 15.177 149.219 16.1534 149.054C16.756 148.952 17.2365 148.561 17.4783 148.048Z" fill="#91B3FA"/>
</g>
<g opacity="0.3">
<path d="M46.9629 194.074C47.3315 193.291 47.0877 192.335 46.3492 191.832C45.5849 191.312 44.8186 190.766 44.0721 190.212C43.2769 189.62 42.1528 189.785 41.5612 190.579C40.9672 191.377 41.1348 192.496 41.9295 193.087C42.7156 193.671 43.5225 194.245 44.3273 194.794C45.146 195.351 46.2623 195.14 46.8209 194.323C46.8756 194.242 46.9226 194.159 46.9629 194.074Z" fill="#91B3FA"/>
<path d="M148.014 169.364C147.549 170.237 146.462 170.569 145.587 170.104C144.712 169.64 144.381 168.556 144.845 167.681C145.731 166.017 146.559 164.289 147.318 162.527C147.704 161.621 148.765 161.198 149.675 161.589C150.586 161.98 151.006 163.034 150.615 163.943C150.287 164.707 149.947 165.462 149.595 166.208C149.094 167.273 148.562 168.334 148.014 169.364ZM151.651 155.977C150.696 155.713 150.136 154.726 150.401 153.772C150.909 151.941 151.345 150.068 151.697 148.207C151.877 147.235 152.819 146.594 153.793 146.777C154.766 146.961 155.407 147.898 155.223 148.871C154.853 150.831 154.394 152.802 153.859 154.729C153.831 154.829 153.796 154.925 153.753 155.015C153.388 155.791 152.506 156.214 151.651 155.977ZM142.843 177.653C141.674 179.269 140.419 180.857 139.113 182.373C138.467 183.124 137.334 183.209 136.582 182.563C135.831 181.918 135.747 180.787 136.392 180.036C137.633 178.596 138.824 177.088 139.934 175.553C140.515 174.751 141.636 174.571 142.44 175.15C143.15 175.663 143.373 176.599 143.013 177.364C142.966 177.463 142.91 177.56 142.843 177.653ZM154.492 140.871C153.503 140.822 152.739 139.982 152.788 138.993C152.881 137.098 152.893 135.176 152.826 133.282C152.79 132.292 153.564 131.462 154.555 131.427C155.546 131.392 156.377 132.165 156.412 133.154C156.483 135.149 156.47 137.173 156.372 139.168C156.36 139.409 156.302 139.637 156.205 139.843C155.905 140.481 155.24 140.907 154.492 140.871ZM132.247 189.317C130.752 190.636 129.179 191.909 127.571 193.102C126.776 193.692 125.652 193.527 125.061 192.733C124.469 191.938 124.636 190.815 125.431 190.225C126.958 189.092 128.452 187.883 129.872 186.63C130.615 185.975 131.75 186.045 132.405 186.787C132.894 187.341 132.979 188.11 132.684 188.737C132.583 188.952 132.437 189.151 132.247 189.317ZM119.347 198.378C117.595 199.341 115.782 200.241 113.957 201.054C113.052 201.456 111.991 201.051 111.588 200.146C111.183 199.241 111.59 198.182 112.496 197.78C114.229 197.008 115.953 196.152 117.618 195.238C118.486 194.761 119.578 195.077 120.055 195.944C120.343 196.467 120.342 197.071 120.106 197.572C119.95 197.903 119.692 198.189 119.347 198.378ZM104.776 204.416C102.855 204.976 100.888 205.459 98.9312 205.856C97.9595 206.052 97.0131 205.425 96.8161 204.455C96.619 203.484 97.2475 202.539 98.2183 202.343C100.078 201.967 101.946 201.506 103.773 200.975C104.724 200.698 105.72 201.244 105.997 202.194C106.125 202.631 106.078 203.077 105.899 203.458C105.687 203.907 105.291 204.267 104.776 204.416ZM89.2335 207.136C87.236 207.262 85.2101 207.304 83.212 207.261C82.2213 207.239 81.4351 206.42 81.4568 205.43C81.4782 204.442 82.2992 203.656 83.2899 203.677C85.1871 203.718 87.1105 203.678 89.0082 203.559C89.9973 203.496 90.8494 204.246 90.9116 205.234C90.9313 205.546 90.8698 205.844 90.7454 206.109C90.4758 206.681 89.9106 207.093 89.2335 207.136ZM73.4642 206.378C71.493 206.062 69.5092 205.657 67.5673 205.175C66.6054 204.936 66.0191 203.964 66.2585 203.003C66.4972 202.046 67.4706 201.457 68.4327 201.696C70.2774 202.154 72.1615 202.538 74.034 202.839C75.0122 202.996 75.6782 203.916 75.5209 204.893C75.4935 205.063 75.4433 205.224 75.3734 205.372C75.0413 206.076 74.2722 206.507 73.4642 206.378ZM58.2623 202.184C56.8952 201.641 55.528 201.049 54.1992 200.424C53.7177 200.198 53.2409 199.967 52.7669 199.732C51.8799 199.292 51.4953 198.218 51.9595 197.33C52.4002 196.443 53.4774 196.082 54.3651 196.523C54.8153 196.746 55.2695 196.966 55.7268 197.181C56.9903 197.774 58.2893 198.337 59.5891 198.854C60.5099 199.219 60.9592 200.262 60.5928 201.181C60.5789 201.216 60.5644 201.25 60.5486 201.283C60.1482 202.134 59.1482 202.536 58.2623 202.184Z" fill="#91B3FA"/>
<path d="M155.242 124.462C155.394 124.14 155.452 123.77 155.386 123.393C155.219 122.437 155.028 121.466 154.819 120.508C154.609 119.541 153.653 118.928 152.685 119.138C151.716 119.349 151.102 120.302 151.313 121.27C151.511 122.18 151.692 123.102 151.851 124.009C152.021 124.984 152.951 125.637 153.927 125.466C154.525 125.362 155.002 124.972 155.242 124.462Z" fill="#91B3FA"/>
</g>
<path d="M130.089 106.774C129.934 106.452 129.592 106.263 129.236 106.304L119.096 107.47C116.11 103.759 112.51 100.496 108.377 97.8567L108.445 87.6685C108.447 87.311 108.222 86.9917 107.885 86.873L96.3368 82.81C95.9992 82.691 95.6234 82.7992 95.4011 83.0792L89.0605 91.0605C84.1837 90.5294 79.3311 90.8185 74.6756 91.8419L67.5058 84.5853C67.2545 84.331 66.8692 84.2639 66.5466 84.4183L55.5042 89.701C55.1817 89.8553 54.9924 90.1973 55.0335 90.5523L56.2012 100.68C52.4848 103.662 49.2177 107.257 46.5755 111.386L36.3747 111.318C36.0168 111.315 35.6969 111.54 35.5782 111.877L31.51 123.411C31.3913 123.748 31.4996 124.124 31.7798 124.346L39.7709 130.679C39.2392 135.549 39.5286 140.396 40.5535 145.046L33.2877 152.207C33.0331 152.458 32.9657 152.842 33.1206 153.165L38.4098 164.194C38.5642 164.516 38.9066 164.705 39.2619 164.664L49.4028 163.497C52.3881 167.209 55.9877 170.472 60.121 173.111L60.0534 183.299C60.0509 183.657 60.2758 183.976 60.6132 184.095L72.1616 188.158C72.4991 188.277 72.8748 188.168 73.097 187.888L79.4379 179.907C84.3146 180.438 89.1672 180.149 93.8228 179.126L100.993 186.382C101.244 186.637 101.629 186.704 101.952 186.549L112.994 181.267C113.317 181.112 113.506 180.77 113.465 180.415L112.297 170.287C116.014 167.305 119.28 163.71 121.923 159.582L132.124 159.65C132.481 159.652 132.801 159.427 132.92 159.09L136.988 147.556C137.107 147.219 136.999 146.844 136.718 146.622L128.727 140.289C129.259 135.418 128.969 130.572 127.945 125.922L135.21 118.761C135.465 118.51 135.532 118.125 135.378 117.803L130.089 106.774Z" fill="#91B3FA"/>
<path d="M94.5031 142.282C90.7501 147.929 83.0975 149.474 77.4428 145.725C74.7035 143.91 72.8364 141.137 72.1854 137.919C71.5341 134.701 72.176 131.422 73.995 128.687C77.748 123.04 85.4007 121.494 91.0553 125.243C96.1993 128.653 97.9436 135.287 95.3901 140.709C95.1371 141.246 94.8414 141.772 94.5031 142.282ZM74.9998 137.351C75.4992 139.819 76.9306 141.944 79.031 143.336C83.3658 146.21 89.2341 145.025 92.1113 140.696C94.9909 136.366 93.8026 130.505 89.4673 127.631C85.1325 124.758 79.2642 125.942 76.387 130.272C76.1262 130.665 75.8975 131.071 75.7003 131.49C74.8439 133.308 74.5943 135.345 74.9998 137.351Z" fill="#BDD0FB"/>
<path d="M111.369 148.493C111.807 147.562 112.201 146.603 112.548 145.619C112.658 145.31 112.762 144.998 112.861 144.685C113.35 143.141 113.716 141.561 113.952 139.969C113.955 139.947 113.959 139.925 113.962 139.904C113.971 139.842 113.98 139.781 113.988 139.719C114.005 139.599 114.02 139.478 114.036 139.358C114.076 139.042 113.904 138.748 113.63 138.619C113.564 138.588 113.491 138.567 113.414 138.557C113.021 138.507 112.663 138.786 112.612 139.178C112.355 141.199 111.878 143.206 111.194 145.143C107.802 154.766 99.7777 161.462 90.498 163.62C85.3367 164.821 79.7864 164.617 74.428 162.732C73.4883 162.402 72.5721 162.026 71.683 161.608C65.6983 158.796 60.9038 154.053 58.0083 148.015C54.6819 141.079 54.2588 133.264 56.817 126.011C62.1019 111.032 78.5923 103.148 93.5833 108.422C94.5076 108.747 95.4121 109.118 96.2929 109.532C100.11 111.326 103.492 113.935 106.187 117.182C106.257 117.266 106.341 117.33 106.434 117.373C106.677 117.488 106.976 117.46 107.198 117.276C107.502 117.023 107.546 116.572 107.292 116.267C104.463 112.857 100.912 110.118 96.9045 108.235C95.9798 107.8 95.0306 107.411 94.0606 107.069C78.3212 101.532 61.0056 109.82 55.4626 125.534C52.7768 133.149 53.2211 141.352 56.7133 148.634C59.7529 154.973 64.7863 159.952 71.0691 162.904C72.0027 163.343 72.9644 163.737 73.9503 164.084C81.5749 166.766 89.7886 166.323 97.0785 162.836C103.427 159.799 108.413 154.77 111.369 148.493Z" fill="#BDD0FB"/>
<g opacity="0.3">
<path d="M191.492 41.5138C191.696 41.0804 191.601 40.5485 191.224 40.2145C190.52 39.5911 189.787 38.9806 189.046 38.4001C188.565 38.0229 187.869 38.1067 187.49 38.5878C187.11 39.0679 187.197 39.7645 187.678 40.1419C188.384 40.6951 189.082 41.2769 189.754 41.8717C190.212 42.277 190.912 42.2345 191.319 41.7776C191.391 41.6961 191.448 41.6072 191.492 41.5138Z" fill="#91B3FA"/>
<path d="M184.566 36.5751C184.25 37.0986 183.57 37.2681 183.045 36.9529C181.721 36.1583 180.341 35.422 178.943 34.7654C178.648 34.627 178.351 34.4915 178.051 34.3583C177.492 34.1095 177.24 33.4554 177.489 32.8969C177.746 32.3781 178.393 32.0874 178.953 32.3356C179.267 32.4751 179.578 32.617 179.886 32.762C181.352 33.4502 182.799 34.2222 184.187 35.0562C184.679 35.351 184.859 35.967 184.62 36.4747C184.604 36.5085 184.586 36.5417 184.566 36.5751ZM172.779 32.3899C170.988 31.8429 169.146 31.4015 167.307 31.079C166.704 30.9731 166.301 30.4001 166.407 29.7974C166.513 29.1985 167.087 28.7926 167.69 28.8985C169.618 29.2363 171.549 29.6986 173.426 30.2726C174.012 30.4515 174.341 31.0703 174.163 31.6554C174.147 31.7065 174.127 31.7563 174.105 31.8038C173.874 32.294 173.312 32.5526 172.779 32.3899ZM161.713 30.4545C159.845 30.3626 157.952 30.387 156.084 30.527C155.475 30.5728 154.942 30.1154 154.897 29.5061C154.851 28.8945 155.307 28.3647 155.919 28.3192C157.877 28.172 159.863 28.1472 161.821 28.2429C162.433 28.2731 162.905 28.7924 162.874 29.4029C162.866 29.5517 162.83 29.6922 162.77 29.8194C162.585 30.2131 162.175 30.4769 161.713 30.4545ZM150.509 31.2938C148.672 31.6628 146.842 32.1492 145.071 32.7395C144.49 32.9329 143.862 32.6195 143.669 32.0395C143.476 31.461 143.788 30.8331 144.369 30.6392C146.227 30.0201 148.145 29.5104 150.072 29.1233C150.672 29.0026 151.256 29.3913 151.377 29.9906C151.425 30.2322 151.391 30.4713 151.293 30.6788C151.149 30.9854 150.867 31.2219 150.509 31.2938ZM139.849 34.8397C138.159 35.6433 136.503 36.5587 134.926 37.5608C134.41 37.889 133.724 37.7367 133.396 37.2208C133.067 36.7049 133.218 36.0204 133.736 35.6928C135.388 34.6424 137.125 33.6829 138.896 32.8403C139.449 32.5779 140.11 32.8122 140.373 33.3638C140.522 33.6756 140.512 34.022 140.375 34.3117C140.27 34.5349 140.09 34.7249 139.849 34.8397ZM130.375 40.8624C128.932 42.0513 127.551 43.3411 126.269 44.6974C125.849 45.1417 125.147 45.1619 124.702 44.7422C124.258 44.3224 124.237 43.6242 124.657 43.177C126.001 41.7551 127.451 40.4015 128.964 39.1544C129.436 38.7658 130.135 38.8322 130.524 39.3035C130.806 39.6449 130.849 40.1047 130.672 40.4799C130.604 40.6233 130.505 40.7549 130.375 40.8624ZM122.666 49.0131C121.563 50.5145 120.54 52.1052 119.625 53.7419C119.326 54.2752 118.652 54.4663 118.117 54.1683C117.583 53.8708 117.399 53.2015 117.689 52.6617C118.649 50.9467 119.721 49.2787 120.878 47.704C121.24 47.2112 121.934 47.1047 122.428 47.4661C122.862 47.784 122.996 48.3592 122.775 48.8286C122.745 48.8922 122.709 48.954 122.666 49.0131ZM114.033 64.9169C113.442 64.7574 113.093 64.1503 113.252 63.5597C113.694 61.9258 114.233 60.2881 114.852 58.6963C114.945 58.4538 115.041 58.214 115.139 57.9742C115.352 57.4044 116.016 57.136 116.584 57.3685C117.151 57.5995 117.422 58.2453 117.191 58.8119C117.099 59.0361 117.009 59.262 116.921 59.4935C116.327 61.0169 115.813 62.5792 115.392 64.1372C115.374 64.2015 115.352 64.2629 115.324 64.3206C115.1 64.7976 114.559 65.059 114.033 64.9169Z" fill="#91B3FA"/>
</g>
<g opacity="0.3">
<path d="M202.5 96.9561C201.656 98.6911 200.697 100.389 199.653 102.005C199.32 102.518 198.635 102.666 198.12 102.333C197.605 102.001 197.465 101.316 197.791 100.803C198.787 99.2625 199.701 97.6425 200.507 95.9872C200.774 95.4372 201.438 95.2086 201.988 95.4759C202.534 95.7413 202.764 96.3954 202.507 96.9422C202.505 96.9468 202.503 96.9517 202.5 96.9561ZM203.311 92.2833C202.733 92.0838 202.426 91.4534 202.626 90.8759C203.227 89.1377 203.729 87.3456 204.117 85.549C204.247 84.9554 204.835 84.5713 205.435 84.7011C206.033 84.8299 206.412 85.4184 206.284 86.0163C205.877 87.899 205.351 89.7772 204.721 91.5984C204.707 91.637 204.693 91.6734 204.676 91.7099C204.438 92.2147 203.852 92.47 203.311 92.2833ZM196.209 106.674C194.969 108.154 193.628 109.572 192.223 110.886C191.776 111.304 191.074 111.281 190.656 110.835C190.237 110.39 190.261 109.691 190.706 109.271C192.047 108.017 193.326 106.665 194.51 105.253C194.903 104.784 195.602 104.723 196.07 105.114C196.465 105.444 196.572 105.99 196.363 106.434C196.323 106.518 196.272 106.598 196.209 106.674ZM205.955 81.2854C205.345 81.2308 204.896 80.6924 204.95 80.0836C205.115 78.2522 205.169 76.3929 205.11 74.5565C205.091 73.9461 205.571 73.4347 206.181 73.4141C206.793 73.3947 207.305 73.8736 207.325 74.4849C207.388 76.4109 207.332 78.3616 207.158 80.2822C207.146 80.415 207.111 80.54 207.057 80.654C206.865 81.0627 206.431 81.3281 205.955 81.2854ZM187.756 114.581C186.199 115.718 184.556 116.771 182.873 117.712C182.339 118.011 181.663 117.82 181.364 117.286C181.065 116.753 181.255 116.078 181.79 115.78C183.397 114.883 184.963 113.878 186.447 112.793C186.941 112.433 187.635 112.54 187.996 113.034C188.244 113.372 188.271 113.805 188.104 114.159C188.028 114.321 187.911 114.468 187.756 114.581ZM177.648 120.234C175.861 120.966 174.013 121.597 172.156 122.108C171.566 122.271 170.957 121.925 170.794 121.336C170.631 120.747 170.977 120.137 171.568 119.974C173.338 119.486 175.101 118.885 176.807 118.186C177.373 117.953 178.021 118.224 178.253 118.79C178.375 119.088 178.358 119.41 178.23 119.681C178.117 119.923 177.915 120.125 177.648 120.234ZM166.476 123.307C164.563 123.591 162.617 123.76 160.691 123.81C160.079 123.826 159.571 123.343 159.555 122.732C159.538 122.121 160.023 121.613 160.633 121.597C162.47 121.55 164.326 121.388 166.149 121.116C166.754 121.026 167.319 121.444 167.408 122.049C167.442 122.273 167.406 122.491 167.316 122.682C167.163 123.006 166.857 123.25 166.476 123.307Z" fill="#91B3FA"/>
<path d="M206.685 69.3002C206.776 69.107 206.813 68.8856 206.777 68.6586C206.631 67.7225 206.455 66.7866 206.257 65.8765C206.127 65.2795 205.537 64.9 204.938 65.0299C204.342 65.1613 203.962 65.7497 204.091 66.3472C204.28 67.215 204.447 68.1081 204.587 69.0013C204.682 69.6054 205.249 70.0182 205.854 69.9236C206.231 69.8643 206.534 69.6216 206.685 69.3002Z" fill="#91B3FA"/>
</g>
<path d="M189.798 56.6663C189.694 56.4506 189.465 56.3244 189.228 56.3517L182.442 57.132C180.444 54.6483 178.035 52.4651 175.27 50.6992L175.315 43.8817C175.316 43.6426 175.166 43.4288 174.94 43.3494L167.213 40.6306C166.987 40.551 166.735 40.6235 166.587 40.8106L162.344 46.1513C159.08 45.796 155.833 45.9894 152.718 46.6742L147.92 41.8185C147.752 41.6483 147.494 41.6035 147.278 41.7067L139.889 45.2417C139.673 45.3449 139.547 45.5736 139.574 45.8113L140.356 52.5885C137.869 54.5836 135.683 56.9895 133.914 59.752L127.089 59.7067C126.849 59.7051 126.635 59.8554 126.556 60.081L123.833 67.7992C123.754 68.0247 123.826 68.2758 124.014 68.4244L129.361 72.6622C129.005 75.9215 129.199 79.1647 129.885 82.276L125.023 87.0677C124.853 87.2356 124.808 87.4931 124.911 87.7088L128.45 95.089C128.554 95.3045 128.783 95.431 129.021 95.4036L135.806 94.6233C137.804 97.107 140.213 99.2904 142.979 101.056L142.933 107.874C142.932 108.113 143.082 108.327 143.308 108.406L151.036 111.125C151.262 111.205 151.513 111.132 151.662 110.945L155.905 105.604C159.168 105.959 162.415 105.766 165.53 105.081L170.328 109.937C170.496 110.107 170.754 110.152 170.97 110.048L178.359 106.513C178.575 106.41 178.701 106.181 178.674 105.944L177.893 99.1665C180.379 97.1713 182.566 94.7656 184.334 92.0031L191.16 92.0485C191.399 92.0499 191.613 91.8997 191.693 91.6742L194.415 83.9561C194.494 83.7306 194.422 83.4795 194.234 83.331L188.887 79.0933C189.243 75.834 189.049 72.591 188.363 69.4795L193.225 64.6877C193.396 64.5199 193.44 64.2622 193.337 64.0467L189.798 56.6663Z" fill="#91B3FA"/>
<path d="M166.109 80.5075C164.871 82.3717 162.98 83.6421 160.785 84.085C158.59 84.5283 156.354 84.0912 154.488 82.8539C150.637 80.3012 149.586 75.1032 152.139 71.2469C154.697 67.4007 159.909 66.3487 163.759 68.9016C165.625 70.1382 166.897 72.0266 167.341 74.2187C167.702 76.0007 167.48 77.8103 166.719 79.426C166.544 79.7974 166.34 80.1591 166.109 80.5075ZM155.713 81.0092C157.086 81.9194 158.731 82.241 160.346 81.9151C161.96 81.5892 163.351 80.6544 164.262 79.2839C165.171 77.9119 165.495 76.2701 165.168 74.6571C164.843 73.0449 163.906 71.6558 162.534 70.7464C159.701 68.8683 155.867 69.6421 153.986 72.4712C153.817 72.7267 153.669 72.9899 153.542 73.2594C152.262 75.9762 153.136 79.301 155.713 81.0092Z" fill="#BDD0FB"/>
<path d="M177.848 84.8292C178.146 84.1953 178.415 83.5414 178.653 82.8674C179.126 81.5287 179.463 80.1405 179.654 78.738C179.663 78.6749 179.671 78.6117 179.679 78.5487C179.741 78.0606 179.475 77.6067 179.052 77.4074C178.95 77.3592 178.837 77.326 178.719 77.311C178.112 77.2337 177.56 77.6648 177.48 78.2696C177.314 79.5808 177.005 80.8798 176.563 82.1307L176.563 82.1312C176.539 82.1999 176.513 82.2687 176.489 82.3365C175.416 85.288 173.647 87.8603 171.353 89.8869C170.108 90.9869 168.706 91.9257 167.175 92.6753C167.163 92.6814 167.15 92.6874 167.138 92.6937C167.099 92.7119 167.062 92.7308 167.024 92.7487C162.528 94.899 157.463 95.1728 152.761 93.5185C152.153 93.3049 151.56 93.0617 150.984 92.7912C147.11 90.9706 144.007 87.8998 142.131 83.9907C139.978 79.5005 139.705 74.4421 141.361 69.7471C143.018 65.0553 146.405 61.2812 150.9 59.1298C155.396 56.9794 160.461 56.7056 165.162 58.3599C165.761 58.5699 166.346 58.8103 166.916 59.0782C169.388 60.2399 171.577 61.9283 173.321 64.0307C173.429 64.1601 173.559 64.259 173.702 64.3258C174.079 64.5024 174.54 64.4596 174.881 64.1767C175.352 63.7853 175.419 63.0892 175.027 62.6174C173.075 60.2653 170.626 58.3757 167.861 57.0758C167.223 56.7758 166.568 56.5071 165.899 56.2717C160.639 54.421 154.972 54.7271 149.942 57.1335C144.913 59.5399 141.12 63.7537 139.27 69.011C137.417 74.2644 137.723 79.9237 140.133 84.9473C142.23 89.3207 145.703 92.7558 150.037 94.7928C150.681 95.0951 151.344 95.3674 152.024 95.6067C162.208 99.1892 173.348 94.3851 177.848 84.8292Z" fill="#BDD0FB"/>
<path d="M414.892 143.216C414.08 143.216 413.408 142.575 413.376 141.758C413.349 141.077 410.383 73.3948 380.834 49.0764C372.127 41.9115 361.836 39.1867 350.258 40.9776C325.808 44.7567 308.889 62.7449 299.972 94.4431C293.252 118.33 293.876 141.422 293.883 141.652C293.909 142.489 293.25 143.189 292.412 143.215C291.571 143.217 290.873 142.584 290.847 141.746C290.84 141.512 290.198 118.016 297.029 93.6881C301.062 79.3264 306.873 67.4653 314.301 58.4351C323.662 47.0553 335.603 40.1724 349.793 37.9792C362.269 36.0503 373.364 38.9972 382.768 46.7376C395.656 57.3455 405.235 76.5669 411.242 103.869C415.688 124.085 416.404 141.467 416.411 141.64C416.444 142.478 415.791 143.182 414.952 143.215C414.932 143.215 414.912 143.216 414.892 143.216Z" fill="url(#paint1_linear_180133_38654)"/>
<path d="M224.576 123.158C224.806 121.603 226.128 120.444 227.701 120.418L399.397 117.583L455.616 452.321H184.328C175.01 452.321 224.576 123.158 224.576 123.158Z" fill="url(#paint2_linear_180133_38654)"/>
<path d="M429.422 120.136L399.397 117.583L455.616 452.321H489.246C496.064 452.321 501.16 446.062 499.77 439.395L434.06 124.241C433.593 121.999 431.707 120.33 429.422 120.136Z" fill="url(#paint3_linear_180133_38654)"/>
<path d="M377.413 142.496C376.601 142.496 375.928 141.855 375.896 141.037C375.87 140.356 372.904 72.6745 343.354 48.3563C334.648 41.1915 324.359 38.4679 312.778 40.2575C288.328 44.0365 271.41 62.0247 262.492 93.7229C255.772 117.61 256.397 140.701 256.404 140.932C256.429 141.769 255.771 142.469 254.932 142.495C254.116 142.508 253.393 141.863 253.367 141.025C253.36 140.791 252.718 117.296 259.549 92.9679C263.582 78.6061 269.393 66.745 276.821 57.7149C286.182 46.335 298.123 39.4522 312.313 37.259C324.79 35.329 335.885 38.2765 345.289 46.0174C358.176 56.6252 367.756 75.8466 373.762 103.149C378.209 123.364 378.925 140.747 378.931 140.92C378.964 141.757 378.311 142.462 377.472 142.495C377.453 142.495 377.433 142.496 377.413 142.496Z" fill="url(#paint4_linear_180133_38654)"/>
<path d="M270.016 265.589C269.992 264.96 267.254 202.446 239.905 179.938C231.802 173.269 222.229 170.732 211.452 172.398C188.771 175.903 173.085 192.568 164.829 221.929C158.626 243.988 159.204 265.304 159.21 265.517L157.125 265.581C157.118 265.366 156.528 243.773 162.808 221.41C166.51 208.225 171.841 197.341 178.653 189.06C187.22 178.644 198.148 172.345 211.133 170.338C222.523 168.578 232.652 171.266 241.234 178.331C253.045 188.052 261.83 205.696 267.346 230.771C271.437 249.366 272.095 265.349 272.101 265.509L270.016 265.589Z" fill="url(#paint5_linear_180133_38654)"/>
<path d="M71.4818 439.265L99.2035 256.756C99.4683 255.013 100.954 253.715 102.719 253.686L262.902 251.042L297.551 457.082H85.1179C76.107 457.082 70.1668 448.168 71.4818 439.265Z" fill="#BDD0FB"/>
<path d="M293.786 253.667L262.902 251.042L297.551 457.082L331.757 456.199C335.133 456.112 337.605 452.991 336.912 449.689L296.178 255.63C295.865 254.544 294.913 253.763 293.786 253.667Z" fill="#91B3FA"/>
<path d="M235.485 264.926C235.46 264.297 232.723 201.783 205.374 179.274C197.271 172.606 187.698 170.069 176.921 171.735C154.24 175.241 138.553 191.905 130.298 221.266C124.095 243.325 124.672 264.641 124.679 264.854L122.593 264.918C122.587 264.702 121.997 243.11 128.276 220.747C131.978 207.562 137.309 196.678 144.121 188.396C152.689 177.981 163.617 171.682 176.602 169.675C187.992 167.914 198.12 170.603 206.703 177.668C218.513 187.389 227.299 205.032 232.815 230.108C236.905 248.703 237.564 264.686 237.57 264.846L235.485 264.926Z" fill="url(#paint6_linear_180133_38654)"/>
<path d="M119.366 325.601C119.353 325.264 117.883 291.73 103.257 279.694C98.9608 276.158 93.8821 274.813 88.1652 275.697C59.2084 280.173 60.2663 325.088 60.2804 325.542L58.5801 325.594C58.5765 325.478 58.2579 313.807 61.6505 301.724C66.1916 285.551 75.2703 275.971 87.9049 274.018C94.1231 273.057 99.6533 274.526 104.34 278.384C119.554 290.906 121.011 324.127 121.065 325.535L119.366 325.601Z" fill="url(#paint7_linear_180133_38654)"/>
<path d="M30.4908 311.663L120.188 310.182L146.521 459.326H12.476C7.89647 459.326 26.3671 329.225 28.6474 313.284C28.779 312.364 29.5602 311.678 30.4908 311.663Z" fill="#91B3FA"/>
<path d="M135.974 311.524L120.188 310.182L146.521 459.326H164.154C166.211 459.326 167.751 457.442 167.339 455.428L138.314 313.603C138.081 312.468 137.129 311.622 135.974 311.524Z" fill="#7D97F4"/>
<path d="M100.773 325.244C100.759 324.907 99.2896 291.373 84.6642 279.337C80.3675 275.801 75.2889 274.456 69.572 275.34C40.6152 279.815 41.6732 324.731 41.6873 325.185L39.987 325.237C39.9834 325.121 39.6648 313.45 43.0574 301.367C47.5985 285.194 56.6772 275.614 69.3117 273.661C75.5301 272.7 81.0596 274.169 85.7472 278.027C100.961 290.549 102.417 323.77 102.472 325.178L100.773 325.244Z" fill="url(#paint8_linear_180133_38654)"/>
<path d="M377.877 474.863C377.877 474.863 379.291 482.854 379.984 490.765C380.255 493.856 377.868 496.541 374.764 496.67C364.216 497.109 341.655 497.962 333.559 497.601C332.342 497.547 331.546 496.302 331.996 495.171C332.374 494.224 333.102 493.458 334.029 493.032L371.297 475.925L377.877 474.863Z" fill="url(#paint9_linear_180133_38654)"/>
<path d="M379.035 470.168L377.9 479.726C377.9 479.726 371.371 482.761 366.913 479.344L369.616 468.691L379.035 470.168Z" fill="url(#paint10_linear_180133_38654)"/>
<path d="M378.182 290.462C378.672 292.959 380.814 415.028 367.75 469.731C367.537 470.624 367.99 471.544 368.84 471.891C370.844 472.708 374.773 473.892 379.48 474.05C380.938 474.099 382.246 473.153 382.657 471.755C386.391 459.063 404.286 395.473 406.62 334.727C409.229 266.849 406.62 332.415 406.62 332.415L405.091 290.458L378.182 290.462Z" fill="url(#paint11_linear_180133_38654)"/>
<path d="M420.748 479.032C420.748 479.032 422.997 483.066 425.176 493.786C425.568 495.722 424.214 497.575 422.246 497.769C418.763 498.11 413.401 498.55 409.107 498.521C407.127 498.507 405.582 496.785 405.82 494.822C406.296 490.909 407.778 484.49 412.356 479.486L420.748 479.032Z" fill="url(#paint12_linear_180133_38654)"/>
<path d="M422.723 466.737L420.07 481.193C420.07 481.193 417.447 483.142 412.257 481.729L413.524 466.176L422.723 466.737Z" fill="url(#paint13_linear_180133_38654)"/>
<path d="M429.891 294.208C440.576 358.613 427.573 453.389 423.188 471.939C422.92 473.075 422.002 473.945 420.849 474.136C418.892 474.46 415.669 474.724 412.492 473.803C411.397 473.486 410.628 472.499 410.584 471.361C409.995 456.364 411.054 364.296 401.098 327.91C400.594 326.066 399.466 324.458 397.907 323.35L378.583 309.63L377.101 287.452L429.891 294.208Z" fill="url(#paint14_linear_180133_38654)"/>
<path d="M366.913 174.471C366.913 174.471 415.999 162.253 450.327 180.411L429.891 294.208C429.891 294.208 397.378 296.826 377.101 290.384L366.913 174.471Z" fill="#91B3FA"/>
<path d="M421.965 140.377L425.721 172.669C425.961 173.125 425.843 173.689 425.434 174.003C422.917 175.935 413.688 181.813 400.622 176.065C399.261 175.466 398.221 174.312 397.811 172.883L403.127 144.898L421.965 140.377Z" fill="url(#paint15_linear_180133_38654)"/>
<path d="M391.835 123.543C391.835 123.543 387.053 146.877 390.833 154.623C394.612 162.369 407.74 157.871 417.403 147.834L419.094 123.66L391.835 123.543Z" fill="url(#paint16_linear_180133_38654)"/>
<path d="M413.734 137.286C413.2 137.216 412.856 136.691 413.012 136.176C413.484 134.611 414.307 131.46 414.13 128.966C414.13 128.966 415.695 127.164 408.373 127.541C401.051 127.918 390.103 128.381 386.244 123.197C382.482 118.142 383.769 102.27 395.882 111.052C396.343 111.386 396.999 111.203 397.204 110.673C398.09 108.383 400.723 103.396 406.659 104.204C412.214 104.959 413.825 108.387 414.291 110.217C414.429 110.755 415.028 111.029 415.522 110.775C417.864 109.573 423.696 107.416 428.274 112.697C432.044 117.048 431.395 120.33 430.45 122.119C430.144 122.698 430.555 123.384 431.212 123.391C432.989 123.41 435.501 124.171 436.416 128.048C437.68 133.408 431.639 134.679 429.887 134.933C429.6 134.975 429.351 135.151 429.225 135.412C428.253 137.429 423.754 146.104 416.967 148.986C416.379 149.236 415.73 148.774 415.759 148.137L416.196 138.412C416.217 137.96 415.887 137.568 415.439 137.509L413.734 137.286Z" fill="url(#paint17_linear_180133_38654)"/>
<path d="M412.881 138.9C412.881 138.9 418.978 131.415 420.837 135.66C422.696 139.906 415.84 144.072 411.67 143.512L412.881 138.9Z" fill="url(#paint18_linear_180133_38654)"/>
<path d="M459.306 242.877C459.306 242.877 455.958 285.609 427.793 287.452C427.793 287.452 415.721 286.347 410.48 290.457C405.24 294.567 407.78 300.9 407.78 300.9L430.504 298.132C430.504 298.132 463.003 303.537 482.543 249.207L459.306 242.877Z" fill="url(#paint19_linear_180133_38654)"/>
<path d="M450.327 180.411C450.327 180.411 488.881 203.316 482.544 249.207C482.544 249.207 468.771 255.169 458.757 247.177C458.757 247.177 450.953 217.362 434.005 215.877L450.327 180.411Z" fill="#91B3FA"/>
<path d="M341.299 196.832C341.299 196.832 322.784 205.426 301.131 182.481C286.333 166.799 277.279 176.414 274.417 182.744C271.556 189.074 278.401 188.547 280.788 188.547C283.175 188.547 283.471 181.66 287.68 182.598C291.889 183.536 290.65 182.28 290.915 186.5C291.179 190.72 313.806 238.373 341.797 215.164L341.299 196.832Z" fill="url(#paint20_linear_180133_38654)"/>
<path d="M256.158 203.49L319.777 199.926C325.578 199.601 330.666 203.334 331.408 208.458L345.655 306.811C346.504 312.674 341.367 317.866 334.717 317.866H251.705C245.405 317.866 240.386 313.184 240.689 307.59L245.836 212.801C246.107 207.814 250.551 203.804 256.158 203.49Z" fill="url(#paint21_linear_180133_38654)"/>
<path d="M266.902 213.483C265.924 213.483 265.112 212.712 265.071 211.728C265.018 210.465 264.021 180.757 284.956 177.489C289.435 176.794 293.408 177.842 296.767 180.613C306.958 189.026 307.82 210.671 307.851 211.588C307.886 212.599 307.094 213.446 306.083 213.482C305.078 213.497 304.222 212.725 304.187 211.715C304.18 211.507 303.35 190.794 294.427 183.434C291.879 181.331 288.964 180.574 285.522 181.108C267.786 183.875 268.723 211.298 268.735 211.575C268.777 212.586 267.991 213.438 266.98 213.482C266.953 213.483 266.927 213.483 266.902 213.483Z" fill="#BDD0FB"/>
<path d="M366.913 174.471L337.044 196.832C337.044 196.832 336.515 213.584 340.477 221.505L373.749 213.338L366.913 174.471Z" fill="#91B3FA"/>
<path d="M176.925 349.518V376.007C176.925 385.871 180.64 395.372 185.994 403.658L191.06 410.13C196.926 419.201 206.967 424.388 217.776 424.388H328.748L329.588 421.539L356.788 322.013L379.611 309.723L376.212 303.515L350.712 317.324L341.968 349.519H176.925V349.518ZM184.844 357.427H340.022L329.077 397.757L323.303 419.116H217.776C209.398 419.116 201.532 414.219 196.991 407.193L192.379 399.847C187.765 392.72 184.844 384.493 184.844 376.007V357.427Z" fill="url(#paint22_linear_180133_38654)"/>
<path d="M192.249 460.509C192.249 462.471 193.847 464.459 195.821 464.459H326.025C327.999 464.459 329.49 461.674 329.49 459.712V398.391C329.49 397.715 329.356 397.784 329.027 397.246L323.303 419.115H321.571V456.55H195.821C193.847 456.55 192.249 458.538 192.249 460.509Z" fill="url(#paint23_linear_180133_38654)"/>
<path d="M264.534 353.242H259.781V419.995H264.534V353.242Z" fill="url(#paint24_linear_180133_38654)"/>
<path d="M306.517 353.242H301.764V419.995H306.517V353.242Z" fill="url(#paint25_linear_180133_38654)"/>
<path d="M223.542 353.242H218.789V419.995H223.542V353.242Z" fill="url(#paint26_linear_180133_38654)"/>
<path d="M338.217 372.877H183.628V377.122H338.217V372.877Z" fill="url(#paint27_linear_180133_38654)"/>
<path d="M331.469 396.113H187.5V400.358H331.469V396.113Z" fill="url(#paint28_linear_180133_38654)"/>
<path d="M293.997 484.667C293.997 493.135 300.87 500 309.349 500C317.828 500 324.701 493.135 324.701 484.667C324.701 476.198 317.827 469.333 309.349 469.333C300.87 469.333 293.997 476.198 293.997 484.667ZM300.082 484.667C300.082 479.555 304.231 475.412 309.348 475.412C314.466 475.412 318.615 479.555 318.615 484.667C318.615 489.778 314.466 493.921 309.348 493.921C304.231 493.921 300.082 489.778 300.082 484.667Z" fill="url(#paint29_linear_180133_38654)"/>
<path d="M198.594 484.667C198.594 493.135 205.468 500 213.946 500C222.425 500 229.298 493.135 229.298 484.667C229.298 476.198 222.425 469.333 213.946 469.333C205.468 469.333 198.594 476.198 198.594 484.667ZM204.68 484.667C204.68 479.555 208.829 475.412 213.947 475.412C219.064 475.412 223.212 479.555 223.212 484.667C223.212 489.778 219.064 493.921 213.947 493.921C208.829 493.921 204.68 489.778 204.68 484.667Z" fill="url(#paint30_linear_180133_38654)"/>
<path d="M360.395 309.718C360.395 313.696 363.624 316.921 367.608 316.921H391.607C395.591 316.921 398.82 313.696 398.82 309.718C398.82 305.739 395.591 302.514 391.607 302.514H367.608C363.624 302.514 360.395 305.739 360.395 309.718Z" fill="url(#paint31_linear_180133_38654)"/>
<defs>
<linearGradient id="paint0_linear_180133_38654" x1="541.677" y1="572.871" x2="192.185" y2="200.372" gradientUnits="userSpaceOnUse">
<stop stop-color="#DAE3FE"/>
<stop offset="1" stop-color="#E9EFFD"/>
</linearGradient>
<linearGradient id="paint1_linear_180133_38654" x1="363.436" y1="36.5772" x2="390.103" y2="-236.49" gradientUnits="userSpaceOnUse">
<stop stop-color="#09005D"/>
<stop offset="1" stop-color="#1A0F91"/>
</linearGradient>
<linearGradient id="paint2_linear_180133_38654" x1="363.642" y1="280.598" x2="-322.405" y2="459.689" gradientUnits="userSpaceOnUse">
<stop stop-color="#4F52FF"/>
<stop offset="1" stop-color="#4042E2"/>
</linearGradient>
<linearGradient id="paint3_linear_180133_38654" x1="684.337" y1="164.621" x2="554.386" y2="230.284" gradientUnits="userSpaceOnUse">
<stop stop-color="#4F52FF"/>
<stop offset="1" stop-color="#4042E2"/>
</linearGradient>
<linearGradient id="paint4_linear_180133_38654" x1="333.952" y1="-127.703" x2="327.285" y2="-28.1864" gradientUnits="userSpaceOnUse">
<stop stop-color="#09005D"/>
<stop offset="1" stop-color="#1A0F91"/>
</linearGradient>
<linearGradient id="paint5_linear_180133_38654" x1="237.779" y1="24.3059" x2="264.446" y2="-248.761" gradientUnits="userSpaceOnUse">
<stop stop-color="#09005D"/>
<stop offset="1" stop-color="#1A0F91"/>
</linearGradient>
<linearGradient id="paint6_linear_180133_38654" x1="213.624" y1="-2.63385" x2="200.896" y2="96.8855" gradientUnits="userSpaceOnUse">
<stop stop-color="#09005D"/>
<stop offset="1" stop-color="#1A0F91"/>
</linearGradient>
<linearGradient id="paint7_linear_180133_38654" x1="120.196" y1="12.8228" x2="146.863" y2="-260.244" gradientUnits="userSpaceOnUse">
<stop stop-color="#09005D"/>
<stop offset="1" stop-color="#1A0F91"/>
</linearGradient>
<linearGradient id="paint8_linear_180133_38654" x1="139.07" y1="116.749" x2="103.91" y2="221.145" gradientUnits="userSpaceOnUse">
<stop stop-color="#09005D"/>
<stop offset="1" stop-color="#1A0F91"/>
</linearGradient>
<linearGradient id="paint9_linear_180133_38654" x1="334.738" y1="463.818" x2="471.028" y2="612.246" gradientUnits="userSpaceOnUse">
<stop stop-color="#09005D"/>
<stop offset="1" stop-color="#1A0F91"/>
</linearGradient>
<linearGradient id="paint10_linear_180133_38654" x1="379.035" y1="474.83" x2="366.913" y2="474.83" gradientUnits="userSpaceOnUse">
<stop stop-color="#FEBBBA"/>
<stop offset="1" stop-color="#FF928E"/>
</linearGradient>
<linearGradient id="paint11_linear_180133_38654" x1="365.849" y1="245.935" x2="398.669" y2="458.163" gradientUnits="userSpaceOnUse">
<stop stop-color="#09005D"/>
<stop offset="1" stop-color="#1A0F91"/>
</linearGradient>
<linearGradient id="paint12_linear_180133_38654" x1="365.354" y1="435.707" x2="501.643" y2="584.134" gradientUnits="userSpaceOnUse">
<stop stop-color="#09005D"/>
<stop offset="1" stop-color="#1A0F91"/>
</linearGradient>
<linearGradient id="paint13_linear_180133_38654" x1="422.724" y1="474.209" x2="412.257" y2="474.209" gradientUnits="userSpaceOnUse">
<stop stop-color="#FEBBBA"/>
<stop offset="1" stop-color="#FF928E"/>
</linearGradient>
<linearGradient id="paint14_linear_180133_38654" x1="394.868" y1="241.447" x2="427.689" y2="453.675" gradientUnits="userSpaceOnUse">
<stop stop-color="#09005D"/>
<stop offset="1" stop-color="#1A0F91"/>
</linearGradient>
<linearGradient id="paint15_linear_180133_38654" x1="421.204" y1="211.636" x2="407.568" y2="145.188" gradientUnits="userSpaceOnUse">
<stop stop-color="#FEBBBA"/>
<stop offset="1" stop-color="#FF928E"/>
</linearGradient>
<linearGradient id="paint16_linear_180133_38654" x1="392.999" y1="148.484" x2="419.773" y2="118.929" gradientUnits="userSpaceOnUse">
<stop stop-color="#FEBBBA"/>
<stop offset="1" stop-color="#FF928E"/>
</linearGradient>
<linearGradient id="paint17_linear_180133_38654" x1="430.92" y1="92.8877" x2="398.574" y2="138.65" gradientUnits="userSpaceOnUse">
<stop stop-color="#09005D"/>
<stop offset="1" stop-color="#1A0F91"/>
</linearGradient>
<linearGradient id="paint18_linear_180133_38654" x1="403.772" y1="153.383" x2="427.862" y2="126.792" gradientUnits="userSpaceOnUse">
<stop stop-color="#FEBBBA"/>
<stop offset="1" stop-color="#FF928E"/>
</linearGradient>
<linearGradient id="paint19_linear_180133_38654" x1="444.314" y1="295.633" x2="446.009" y2="225.042" gradientUnits="userSpaceOnUse">
<stop stop-color="#FEBBBA"/>
<stop offset="1" stop-color="#FF928E"/>
</linearGradient>
<linearGradient id="paint20_linear_180133_38654" x1="307.379" y1="216.229" x2="308.711" y2="160.748" gradientUnits="userSpaceOnUse">
<stop stop-color="#FEBBBA"/>
<stop offset="1" stop-color="#FF928E"/>
</linearGradient>
<linearGradient id="paint21_linear_180133_38654" x1="399.533" y1="101.252" x2="304.919" y2="246.992" gradientUnits="userSpaceOnUse">
<stop stop-color="#FF928E"/>
<stop offset="1" stop-color="#FE7062"/>
</linearGradient>
<linearGradient id="paint22_linear_180133_38654" x1="-249.158" y1="-1497.93" x2="-60.0344" y2="-835.176" gradientUnits="userSpaceOnUse">
<stop stop-color="#FF928E"/>
<stop offset="1" stop-color="#FE7062"/>
</linearGradient>
<linearGradient id="paint23_linear_180133_38654" x1="-287.399" y1="-1487.01" x2="-98.2755" y2="-824.259" gradientUnits="userSpaceOnUse">
<stop stop-color="#FF928E"/>
<stop offset="1" stop-color="#FE7062"/>
</linearGradient>
<linearGradient id="paint24_linear_180133_38654" x1="-274.851" y1="-1490.59" x2="-85.7282" y2="-827.844" gradientUnits="userSpaceOnUse">
<stop stop-color="#FF928E"/>
<stop offset="1" stop-color="#FE7062"/>
</linearGradient>
<linearGradient id="paint25_linear_180133_38654" x1="-236.037" y1="-1501.67" x2="-46.9126" y2="-838.913" gradientUnits="userSpaceOnUse">
<stop stop-color="#FF928E"/>
<stop offset="1" stop-color="#FE7062"/>
</linearGradient>
<linearGradient id="paint26_linear_180133_38654" x1="-312.748" y1="-1479.78" x2="-123.624" y2="-817.033" gradientUnits="userSpaceOnUse">
<stop stop-color="#FF928E"/>
<stop offset="1" stop-color="#FE7062"/>
</linearGradient>
<linearGradient id="paint27_linear_180133_38654" x1="-272.921" y1="-1491.14" x2="-83.7974" y2="-828.393" gradientUnits="userSpaceOnUse">
<stop stop-color="#FF928E"/>
<stop offset="1" stop-color="#FE7062"/>
</linearGradient>
<linearGradient id="paint28_linear_180133_38654" x1="-280.396" y1="-1489.01" x2="-91.2731" y2="-826.26" gradientUnits="userSpaceOnUse">
<stop stop-color="#FF928E"/>
<stop offset="1" stop-color="#FE7062"/>
</linearGradient>
<linearGradient id="paint29_linear_180133_38654" x1="-257.154" y1="-1495.64" x2="-68.0308" y2="-832.893" gradientUnits="userSpaceOnUse">
<stop stop-color="#FF928E"/>
<stop offset="1" stop-color="#FE7062"/>
</linearGradient>
<linearGradient id="paint30_linear_180133_38654" x1="-345.355" y1="-1470.47" x2="-156.232" y2="-807.723" gradientUnits="userSpaceOnUse">
<stop stop-color="#FF928E"/>
<stop offset="1" stop-color="#FE7062"/>
</linearGradient>
<linearGradient id="paint31_linear_180133_38654" x1="-145.927" y1="-1527.38" x2="43.1962" y2="-864.631" gradientUnits="userSpaceOnUse">
<stop stop-color="#FF928E"/>
<stop offset="1" stop-color="#FE7062"/>
</linearGradient>
</defs>
</svg>
