<svg width="500" height="500" viewBox="0 0 500 500" fill="none" xmlns="http://www.w3.org/2000/svg">
<path d="M473.414 328.573C427.004 438.641 303.38 500.302 196.174 483.669C178.729 480.963 130.904 472.901 88.5611 434.866C7.04887 361.646 -10.3832 216.661 55.3704 114.487C103.227 40.1219 189.016 -2.03307 270.532 0.0754977C288.09 0.529605 355.382 3.32889 414.52 52.4464C423.206 59.6608 442.364 76.8042 459.63 104.001C500.174 167.864 503.659 256.84 473.414 328.573Z" fill="url(#paint0_linear_180133_38404)"/>
<path d="M210.414 386.796L199.618 461.843H324.877L308.562 386.796H210.414Z" fill="url(#paint1_linear_180133_38404)"/>
<path d="M0 146.499V369.872C0 388.247 14.5375 403.274 32.7743 403.748C113.773 405.851 397.068 410.953 474.173 409.808C487.425 409.611 498.161 398.929 498.544 385.585C500.03 333.692 502.445 208.908 493.509 150.976C491.627 138.776 481.403 129.653 469.152 129.258C401.286 127.071 100.975 120.127 23.9053 121.871C10.6135 122.171 0 133.108 0 146.499Z" fill="url(#paint2_linear_180133_38404)"/>
<path d="M13.9148 145.412V357.631C13.9148 368.36 22.4649 377.102 33.1149 377.262L463.08 382.613C473.639 382.772 482.294 374.215 482.333 363.579L483.053 153.255C483.081 145.65 477.065 139.419 469.517 139.233L29.3122 130.276C20.8697 130.068 13.9148 136.906 13.9148 145.412Z" fill="#BDD0FB"/>
<path d="M485.571 391.374C485.567 391.374 485.563 391.374 485.559 391.374L13.9036 383.279C13.5394 383.272 13.2494 382.97 13.2556 382.604C13.2616 382.237 13.5689 381.957 13.9261 381.951L485.582 390.046C485.946 390.052 486.236 390.354 486.23 390.721C486.224 391.084 485.93 391.374 485.571 391.374Z" fill="#91B3FA"/>
<path d="M254.396 401.26C251.326 401.26 248.829 398.744 248.829 395.653C248.829 392.561 251.326 390.046 254.396 390.046C257.465 390.046 259.962 392.561 259.962 395.653C259.962 398.744 257.465 401.26 254.396 401.26ZM254.396 391.374C252.053 391.374 250.148 393.293 250.148 395.652C250.148 398.012 252.053 399.931 254.396 399.931C256.738 399.931 258.644 398.012 258.644 395.652C258.644 393.293 256.738 391.374 254.396 391.374Z" fill="#91B3FA"/>
<path d="M351.858 481.798H168.532C163.552 481.798 159.812 478.227 160.775 474.391L163.127 465.02C163.834 462.202 166.912 460.133 170.568 460.018L347.301 454.464C351.12 454.344 354.502 456.386 355.334 459.314L359.575 474.24C360.677 478.118 356.919 481.798 351.858 481.798Z" fill="url(#paint3_linear_180133_38404)"/>
<path d="M267.219 462.62C266.86 462.62 266.566 462.329 266.56 461.965C266.555 461.598 266.846 461.297 267.21 461.291L274.783 461.18C274.787 461.18 274.79 461.18 274.793 461.18C275.153 461.18 275.447 461.471 275.452 461.834C275.458 462.201 275.167 462.502 274.803 462.508L267.229 462.62C267.226 462.62 267.223 462.62 267.219 462.62Z" fill="#91B3FA"/>
<path d="M167.562 476.694C167.527 476.694 167.492 476.691 167.457 476.686C167.097 476.628 166.852 476.288 166.91 475.925L167.99 469.11C168.575 465.417 171.695 462.698 175.406 462.643L255.732 461.46C256.096 461.445 256.396 461.748 256.401 462.114C256.406 462.481 256.116 462.783 255.752 462.788L175.426 463.971C172.356 464.016 169.777 466.265 169.292 469.319L168.212 476.135C168.16 476.461 167.88 476.694 167.562 476.694Z" fill="#91B3FA"/>
<g opacity="0.53">
<path d="M61.7745 189.613H40.0776V361.82H61.7745V189.613Z" fill="white"/>
<path d="M98.0277 189.613H76.3308V361.82H98.0277V189.613Z" fill="white"/>
<path d="M134.281 189.613H112.584V361.82H134.281V189.613Z" fill="white"/>
<path d="M170.534 189.613H148.837V361.82H170.534V189.613Z" fill="white"/>
<path d="M206.787 189.613H185.091V361.82H206.787V189.613Z" fill="white"/>
<path d="M243.041 189.613H221.344V361.82H243.041V189.613Z" fill="white"/>
<path d="M279.294 189.613H257.597V361.82H279.294V189.613Z" fill="white"/>
<path d="M318.28 189.613H296.583V361.82H318.28V189.613Z" fill="white"/>
<path d="M354.533 189.613H332.836V361.82H354.533V189.613Z" fill="white"/>
<path d="M390.786 189.613H369.089V361.82H390.786V189.613Z" fill="white"/>
</g>
<path d="M61.7743 271.698H40.0775V361.82H61.7743V271.698Z" fill="url(#paint4_linear_180133_38404)"/>
<path d="M98.0277 302.671H76.3308V361.82H98.0277V302.671Z" fill="url(#paint5_linear_180133_38404)"/>
<path d="M134.281 226.122H112.584V361.82H134.281V226.122Z" fill="url(#paint6_linear_180133_38404)"/>
<path d="M170.534 329.22H148.837V361.82H170.534V329.22Z" fill="url(#paint7_linear_180133_38404)"/>
<path d="M206.787 244.264H185.091V361.82H206.787V244.264Z" fill="url(#paint8_linear_180133_38404)"/>
<path d="M243.041 264.618H221.344V361.82H243.041V264.618Z" fill="url(#paint9_linear_180133_38404)"/>
<path d="M279.294 286.742H257.597V361.82H279.294V286.742Z" fill="url(#paint10_linear_180133_38404)"/>
<path d="M318.092 209.828H296.395V361.82H318.092V209.828Z" fill="url(#paint11_linear_180133_38404)"/>
<path d="M354.345 332.246H332.648V361.82H354.345V332.246Z" fill="url(#paint12_linear_180133_38404)"/>
<path d="M390.598 274.795H368.901V361.82H390.598V274.795Z" fill="url(#paint13_linear_180133_38404)"/>
<path d="M476.381 167.32L429.066 83.7568L381.751 167.32H399.579V359.803H457.529V167.32H476.381Z" fill="url(#paint14_linear_180133_38404)"/>
<path d="M396.209 374.179C395.406 374.179 394.738 373.542 394.702 372.725C394.692 372.503 393.595 350.367 383.087 341.535C379.629 338.629 375.457 337.488 370.686 338.143C348.318 341.215 349.111 372.292 349.122 372.605C349.15 373.445 348.498 374.149 347.665 374.178C346.814 374.207 346.133 373.55 346.104 372.712C346.092 372.367 345.841 364.167 348.604 355.422C352.347 343.58 359.841 336.562 370.278 335.128C375.925 334.354 380.889 335.724 385.026 339.203C396.557 348.901 397.676 371.628 397.719 372.592C397.755 373.43 397.109 374.14 396.277 374.177C396.254 374.178 396.231 374.179 396.209 374.179Z" fill="url(#paint15_linear_180133_38404)"/>
<path d="M320.726 366.124C320.817 365.576 321.342 365.168 321.966 365.159L390.064 364.16L412.361 482.121H304.763C301.067 482.121 320.726 366.124 320.726 366.124Z" fill="url(#paint16_linear_180133_38404)"/>
<path d="M401.973 365.059L390.064 364.16L412.361 482.121H425.7C428.404 482.121 430.425 479.915 429.874 477.566L403.812 366.506C403.627 365.716 402.879 365.128 401.973 365.059Z" fill="url(#paint17_linear_180133_38404)"/>
<path d="M332.747 373.925C331.938 373.925 331.267 373.279 331.239 372.458C331.227 372.114 330.976 363.913 333.739 355.169C337.482 343.326 344.976 336.309 355.413 334.875C361.063 334.102 366.024 335.47 370.162 338.95C381.692 348.647 382.811 371.375 382.854 372.338C382.89 373.177 382.244 373.887 381.412 373.924C380.578 373.963 379.874 373.31 379.837 372.472C379.827 372.249 378.731 350.113 368.222 341.281C364.765 338.376 360.592 337.234 355.821 337.889C333.42 340.965 334.246 372.037 334.257 372.351C334.286 373.19 333.635 373.895 332.801 373.924C332.783 373.925 332.765 373.925 332.747 373.925Z" fill="url(#paint18_linear_180133_38404)"/>
<path d="M147.271 94.0804L224.02 68.1863C228.255 66.7577 232.857 68.922 234.489 73.1086L277.426 183.276C278.702 186.553 277.033 190.243 273.74 191.421L186.311 222.71C183.217 223.817 179.823 222.153 178.781 219.016L141.269 106.216C139.6 101.195 142.287 95.7622 147.271 94.0804Z" fill="url(#paint19_linear_180133_38404)"/>
<path d="M198.545 216.509L198.544 216.509L188.659 219.702C185.331 220.776 181.721 218.935 180.611 215.598L175.634 200.629C175.587 200.49 175.662 200.339 175.801 200.293C175.944 200.253 176.089 200.321 176.135 200.461L181.113 215.429C182.131 218.491 185.444 220.181 188.498 219.195L198.383 216.002C198.522 215.957 198.67 216.034 198.715 216.174C198.76 216.314 198.684 216.463 198.545 216.509Z" fill="#BDD0FB"/>
<path d="M174.424 196.162C174.286 196.207 174.138 196.132 174.092 195.993L173.285 193.569C173.239 193.43 173.314 193.279 173.452 193.232C173.453 193.232 173.454 193.231 173.454 193.231C173.592 193.186 173.741 193.261 173.787 193.4L174.593 195.824C174.639 195.963 174.565 196.114 174.426 196.161C174.426 196.161 174.425 196.161 174.424 196.162Z" fill="#BDD0FB"/>
<path d="M147.875 95.1073C158.824 92.9794 196.313 85.1755 225.357 72.8553C226.682 72.2935 228.201 72.9158 228.721 74.2399L271.49 182.982C272.076 184.473 271.338 186.166 269.835 186.773C257.547 191.736 206.88 211.99 187.835 216.291C186.676 216.552 185.514 215.905 185.137 214.791L145.763 98.7012C145.228 97.1242 146.224 95.428 147.875 95.1073Z" fill="#91B3FA"/>
<path opacity="0.6" d="M149.299 95.634C159.843 93.6089 195.944 86.168 223.882 74.2758C225.156 73.7335 226.623 74.3485 227.131 75.6444L268.876 182.055C269.448 183.514 268.744 185.164 267.299 185.75C255.478 190.538 206.733 210.075 188.395 214.183C187.279 214.433 186.156 213.795 185.787 212.705L147.28 99.134C146.757 97.5912 147.709 95.9394 149.299 95.634Z" fill="white"/>
<g opacity="0.6">
<path d="M226.305 84.0451C226.675 83.9203 226.857 83.5208 226.709 83.1574L226.626 82.9553C226.478 82.5919 226.054 82.3941 225.683 82.516L160.209 104.029C159.838 104.151 159.803 104.426 160.13 104.639L161.285 105.393C161.612 105.607 162.182 105.68 162.552 105.555L226.305 84.0451Z" fill="white"/>
</g>
<g opacity="0.6">
<path d="M161.649 108.359C161.278 108.481 161.243 108.756 161.57 108.969L162.725 109.723C163.052 109.937 163.622 110.01 163.992 109.885L227.745 88.3752C228.115 88.2504 228.297 87.8509 228.148 87.4875L228.066 87.2854C227.918 86.9218 227.494 86.7241 227.123 86.8461L161.649 108.359Z" fill="white"/>
</g>
<path d="M186.045 143.896C186.037 143.899 186.03 143.902 186.022 143.904L177.452 147.016C176.217 147.464 174.887 146.991 174.358 145.915L170.946 138.979C170.743 138.566 170.719 138.092 170.878 137.645C171.056 137.144 171.449 136.725 171.957 136.494C172.659 136.175 173.619 135.719 174.676 135.217C176.978 134.124 179.587 132.885 181.162 132.273C181.174 132.269 181.185 132.264 181.197 132.26C182.329 131.836 183.559 132.167 184.2 133.071C185.258 134.564 186.375 137.716 187.523 141.09C187.899 142.197 187.237 143.45 186.045 143.896ZM172.263 137.177C171.937 137.325 171.688 137.587 171.578 137.897C171.487 138.152 171.499 138.418 171.612 138.647L175.024 145.583C175.385 146.318 176.321 146.631 177.2 146.312L185.77 143.2C185.775 143.198 185.781 143.196 185.787 143.194C186.603 142.889 187.066 142.057 186.82 141.333C185.691 138.014 184.595 134.917 183.595 133.506C183.152 132.882 182.219 132.643 181.43 132.972C179.879 133.574 177.171 134.86 174.993 135.894C173.932 136.398 172.967 136.856 172.263 137.177Z" fill="white"/>
<path opacity="0.6" d="M173.447 137.557C175.195 136.763 178.947 134.905 180.788 134.191C181.568 133.888 182.431 134.107 182.867 134.723C183.714 135.919 184.643 138.586 185.483 141.054C185.734 141.794 185.282 142.628 184.464 142.925L177.615 145.412C176.773 145.717 175.864 145.402 175.509 144.68L172.783 139.138C172.501 138.564 172.799 137.852 173.447 137.557Z" fill="white"/>
<g opacity="0.6">
<path d="M190.744 133.615C190.375 133.743 190.257 134.111 190.482 134.432L192.375 137.141C192.6 137.462 193.083 137.613 193.448 137.477L236.518 121.366C236.883 121.229 237.065 120.818 236.921 120.453L236.191 118.599C236.048 118.234 235.628 118.039 235.259 118.167L190.744 133.615Z" fill="white"/>
</g>
<path d="M174.228 138.553C174.723 137.941 175.622 137.86 176.218 138.373L179.024 140.784C179.305 141.025 179.739 140.841 179.763 140.47L180.486 129.539C180.523 128.994 181.272 128.893 181.453 129.408C182.467 132.29 183.72 138.019 180.856 144.278C180.856 144.278 177.989 144.235 174.327 140.528C173.798 139.992 173.753 139.138 174.228 138.553Z" fill="url(#paint20_linear_180133_38404)"/>
<path d="M179.722 124.297C179.715 124.3 179.707 124.303 179.699 124.306L171.129 127.418C169.894 127.866 168.564 127.392 168.035 126.316L164.623 119.38C164.42 118.968 164.396 118.494 164.555 118.046C164.733 117.545 165.126 117.126 165.634 116.895C166.336 116.576 167.296 116.12 168.354 115.618C170.655 114.525 173.264 113.286 174.839 112.674C174.851 112.67 174.862 112.665 174.874 112.661C176.006 112.238 177.236 112.568 177.877 113.472C178.934 114.965 180.052 118.117 181.2 121.491C181.576 122.598 180.914 123.851 179.722 124.297ZM165.94 117.578C165.615 117.726 165.365 117.988 165.255 118.298C165.165 118.553 165.177 118.819 165.289 119.048L168.701 125.984C169.062 126.719 169.998 127.032 170.878 126.713L179.447 123.602C179.453 123.6 179.458 123.597 179.464 123.595C180.281 123.29 180.743 122.458 180.497 121.734C179.368 118.415 178.272 115.318 177.272 113.907C176.83 113.283 175.897 113.044 175.107 113.373C173.557 113.975 170.848 115.262 168.671 116.295C167.609 116.799 166.645 117.257 165.94 117.578Z" fill="white"/>
<path opacity="0.6" d="M167.124 117.959C168.872 117.165 172.624 115.307 174.465 114.592C175.245 114.29 176.108 114.509 176.544 115.125C177.391 116.321 178.32 118.988 179.16 121.456C179.411 122.195 178.959 123.03 178.141 123.327L171.293 125.814C170.45 126.119 169.541 125.804 169.186 125.082L166.46 119.539C166.178 118.966 166.476 118.254 167.124 117.959Z" fill="white"/>
<g opacity="0.6">
<path d="M184.421 114.017C184.052 114.145 183.934 114.512 184.159 114.833L186.052 117.542C186.277 117.864 186.76 118.015 187.125 117.878L230.195 101.767C230.56 101.63 230.742 101.22 230.598 100.854L229.868 99C229.725 98.6348 229.305 98.4407 228.937 98.5687L184.421 114.017Z" fill="white"/>
</g>
<path d="M167.905 118.955C168.4 118.343 169.299 118.261 169.895 118.774L172.701 121.185C172.982 121.426 173.416 121.242 173.44 120.871L174.164 109.94C174.2 109.395 174.949 109.295 175.13 109.81C176.144 112.691 177.398 118.42 174.533 124.68C174.533 124.68 171.666 124.636 168.004 120.929C167.475 120.393 167.43 119.54 167.905 118.955Z" fill="url(#paint21_linear_180133_38404)"/>
<path d="M192.842 162.331C192.834 162.333 192.826 162.336 192.819 162.339L184.249 165.451C183.014 165.899 181.683 165.426 181.154 164.35L177.743 157.414C177.54 157.001 177.516 156.527 177.675 156.079C177.852 155.579 178.246 155.159 178.753 154.929C179.455 154.61 180.416 154.153 181.473 153.651C183.775 152.559 186.383 151.319 187.958 150.708C187.97 150.703 187.982 150.699 187.993 150.694C189.125 150.271 190.356 150.602 190.997 151.506C192.054 152.999 193.172 156.151 194.319 159.524C194.696 160.632 194.034 161.885 192.842 162.331ZM179.059 155.611C178.734 155.759 178.485 156.021 178.375 156.332C178.284 156.586 178.296 156.853 178.409 157.082L181.82 164.017C182.182 164.753 183.117 165.066 183.997 164.747L192.567 161.635C192.572 161.633 192.578 161.631 192.583 161.629C193.4 161.323 193.863 160.492 193.616 159.768C192.487 156.448 191.391 153.352 190.392 151.941C189.949 151.316 189.019 151.087 188.226 151.407C186.676 152.009 183.967 153.295 181.79 154.329C180.729 154.833 179.764 155.291 179.059 155.611Z" fill="white"/>
<path opacity="0.6" d="M180.244 155.992C181.992 155.197 185.744 153.34 187.584 152.625C188.364 152.322 189.227 152.542 189.663 153.158C190.511 154.353 191.44 157.02 192.279 159.489C192.531 160.228 192.079 161.063 191.26 161.36L184.412 163.846C183.57 164.152 182.661 163.836 182.306 163.115L179.58 157.573C179.298 156.999 179.595 156.286 180.244 155.992Z" fill="white"/>
<g opacity="0.6">
<path d="M197.541 152.05C197.172 152.178 197.054 152.546 197.278 152.867L199.172 155.576C199.397 155.897 199.879 156.048 200.245 155.912L243.314 139.801C243.68 139.664 243.861 139.253 243.718 138.888L242.988 137.034C242.844 136.668 242.425 136.474 242.056 136.602L197.541 152.05Z" fill="white"/>
</g>
<path d="M181.025 156.988C181.52 156.376 182.419 156.294 183.015 156.807L185.821 159.218C186.102 159.459 186.535 159.275 186.56 158.904L187.284 147.973C187.32 147.428 188.069 147.328 188.25 147.843C189.264 150.724 190.517 156.454 187.653 162.713C187.653 162.713 184.787 162.669 181.124 158.962C180.595 158.427 180.55 157.573 181.025 156.988Z" fill="url(#paint22_linear_180133_38404)"/>
<path d="M198.569 180.331C198.561 180.334 198.554 180.337 198.546 180.34L189.976 183.451C188.742 183.9 187.411 183.426 186.882 182.35L183.47 175.414C183.267 175.001 183.243 174.528 183.402 174.08C183.579 173.579 183.973 173.16 184.481 172.929C185.182 172.61 186.142 172.154 187.198 171.653C189.386 170.613 192.11 169.32 193.686 168.708C194.808 168.282 196.077 168.593 196.724 169.506C197.782 170.999 198.899 174.151 200.047 177.525C200.423 178.631 199.761 179.885 198.569 180.331ZM184.787 173.611C184.462 173.759 184.212 174.022 184.102 174.332C184.012 174.587 184.024 174.853 184.136 175.082L187.548 182.017C187.909 182.752 188.845 183.066 189.724 182.746L198.294 179.635C199.094 179.32 199.592 178.497 199.344 177.767C198.215 174.448 197.119 171.352 196.119 169.941C195.676 169.316 194.75 169.096 193.954 169.407C192.403 170.009 189.693 171.296 187.515 172.33C186.455 172.833 185.491 173.291 184.787 173.611Z" fill="white"/>
<path opacity="0.6" d="M185.971 173.993C187.719 173.198 191.471 171.341 193.312 170.626C194.092 170.323 194.955 170.543 195.391 171.159C196.238 172.354 197.168 175.021 198.007 177.49C198.258 178.229 197.806 179.063 196.988 179.361L190.14 181.847C189.297 182.153 188.388 181.837 188.033 181.116L185.307 175.573C185.025 175 185.323 174.287 185.971 173.993Z" fill="white"/>
<g opacity="0.6">
<path d="M203.268 170.051C202.899 170.179 202.781 170.546 203.006 170.867L204.899 173.576C205.124 173.897 205.607 174.048 205.973 173.912L249.042 157.801C249.407 157.664 249.589 157.253 249.445 156.888L248.715 155.034C248.571 154.668 248.152 154.474 247.783 154.602L203.268 170.051Z" fill="white"/>
</g>
<path d="M186.752 174.988C187.248 174.376 188.146 174.295 188.743 174.808L191.548 177.219C191.829 177.46 192.263 177.276 192.287 176.905L193.011 165.974C193.047 165.429 193.796 165.328 193.978 165.843C194.992 168.725 196.245 174.454 193.38 180.714C193.38 180.714 190.514 180.67 186.851 176.963C186.322 176.427 186.278 175.574 186.752 174.988Z" fill="url(#paint23_linear_180133_38404)"/>
<path d="M204.33 198.949C204.322 198.952 204.314 198.955 204.307 198.957L195.737 202.069C194.502 202.517 193.172 202.044 192.643 200.968L189.231 194.032C189.028 193.619 189.004 193.145 189.163 192.698C189.34 192.197 189.734 191.778 190.242 191.547C190.944 191.228 191.904 190.772 192.962 190.27C195.263 189.177 197.872 187.938 199.447 187.326C200.613 186.907 201.838 187.211 202.485 188.124C203.543 189.617 204.66 192.769 205.808 196.143C206.184 197.25 205.522 198.503 204.33 198.949ZM190.547 192.23C190.222 192.377 189.972 192.64 189.863 192.95C189.772 193.204 189.784 193.471 189.897 193.699L193.308 200.635C193.67 201.371 194.606 201.684 195.485 201.365L204.055 198.253C204.06 198.251 204.066 198.249 204.072 198.247C204.888 197.942 205.351 197.11 205.104 196.386C203.976 193.066 202.879 189.97 201.88 188.559C201.437 187.934 200.514 187.722 199.714 188.025C198.164 188.627 195.455 189.913 193.278 190.947C192.217 191.451 191.252 191.909 190.547 192.23Z" fill="white"/>
<path opacity="0.6" d="M191.732 192.61C193.48 191.816 197.232 189.959 199.073 189.244C199.852 188.941 200.715 189.161 201.152 189.776C201.998 190.972 202.928 193.639 203.768 196.108C204.019 196.847 203.567 197.681 202.749 197.978L195.9 200.465C195.058 200.771 194.149 200.455 193.794 199.734L191.068 194.191C190.786 193.618 191.084 192.905 191.732 192.61Z" fill="white"/>
<g opacity="0.6">
<path d="M209.029 188.668C208.66 188.796 208.542 189.164 208.766 189.485L210.66 192.194C210.884 192.515 211.367 192.666 211.733 192.529L254.802 176.419C255.168 176.282 255.349 175.871 255.206 175.506L254.476 173.651C254.332 173.286 253.913 173.092 253.544 173.22L209.029 188.668Z" fill="white"/>
</g>
<path d="M192.512 193.606C193.008 192.994 193.906 192.913 194.503 193.425L197.308 195.836C197.589 196.078 198.023 195.893 198.048 195.522L198.771 184.592C198.807 184.046 199.557 183.946 199.738 184.461C200.752 187.342 202.005 193.072 199.141 199.331C199.141 199.331 196.274 199.287 192.612 195.58C192.083 195.045 192.038 194.191 192.512 193.606Z" fill="url(#paint24_linear_180133_38404)"/>
<path d="M185.324 64.2459C181.906 63.2387 179.508 64.0904 177.979 65.1673C176.584 66.1496 176.081 67.9934 176.767 69.5627L180.174 77.3612L189.141 75.2016C189.141 75.2016 192.028 66.2214 185.324 64.2459ZM183.653 72.0287C182.454 72.4334 181.156 71.7821 180.754 70.5743C180.353 69.3664 180.999 68.0591 182.198 67.6545C183.397 67.25 184.695 67.9011 185.097 69.1089C185.499 70.317 184.852 71.6241 183.653 72.0287Z" fill="url(#paint25_linear_180133_38404)"/>
<path d="M179.836 73.9298C179.666 73.925 179.505 73.8238 179.432 73.6563L178.889 72.4141C178.788 72.1825 178.892 71.9123 179.122 71.8105C179.352 71.7082 179.621 71.813 179.722 72.0454L180.265 73.2875C180.366 73.5191 180.261 73.7893 180.032 73.8911C179.968 73.9193 179.901 73.9318 179.836 73.9298ZM178.773 71.4961C178.603 71.4913 178.442 71.3902 178.369 71.2225L177.957 70.2795C177.259 68.6821 177.778 66.8007 179.192 65.805C180.159 65.1238 181.251 64.7041 182.436 64.5588C182.683 64.5325 182.913 64.7068 182.943 64.9584C182.973 65.2095 182.796 65.438 182.546 65.4686C181.51 65.5952 180.557 65.9614 179.713 66.5559C178.654 67.3014 178.266 68.712 178.789 69.9105L179.202 70.8536C179.303 71.0852 179.198 71.3552 178.969 71.4572C178.905 71.4854 178.838 71.4979 178.773 71.4961Z" fill="#BDD0FB"/>
<path d="M170.018 86.5705L168.673 82.5254C168.209 81.1291 168.986 79.6231 170.387 79.2034L198.393 70.8173C199.636 70.4452 200.956 71.0864 201.44 72.2977L202.964 76.1063L170.018 86.5705Z" fill="url(#paint26_linear_180133_38404)"/>
<path d="M177.504 78.5431C177.366 78.5883 177.218 78.5131 177.172 78.3745C177.125 78.2349 177.2 78.0842 177.339 78.0374L178.529 77.6356C178.674 77.5885 178.818 77.664 178.864 77.8035C178.91 77.9431 178.836 78.0938 178.697 78.1406L177.506 78.5424C177.506 78.5428 177.505 78.5429 177.504 78.5431Z" fill="#BDD0FB"/>
<path d="M171.011 85.0413C170.826 85.0361 170.655 84.9163 170.593 84.7286L170.049 83.0922C169.825 82.4204 169.875 81.7011 170.189 81.0667C170.502 80.4324 171.042 79.9588 171.71 79.7336L176.087 78.2568C176.325 78.1775 176.583 78.3058 176.663 78.5461C176.743 78.7861 176.614 79.0456 176.376 79.1261L171.998 80.6027C171.097 80.9068 170.609 81.8931 170.911 82.8011L171.455 84.4375C171.535 84.6775 171.407 84.937 171.168 85.0177C171.117 85.0352 171.064 85.0427 171.011 85.0413Z" fill="#BDD0FB"/>
<path d="M160.85 88.0171L209.267 71.6803C211.008 71.0928 212.916 71.8527 213.788 73.4803L213.908 73.705C214.863 75.4878 213.992 77.7069 212.085 78.3505L162.411 95.1098C161.27 95.4948 160.041 94.8407 159.714 93.6739L159.076 91.3984C158.677 89.975 159.458 88.4869 160.85 88.0171Z" fill="url(#paint27_linear_180133_38404)"/>
<path d="M262.907 53.0942C262.907 53.0942 263.03 52.8873 263.267 52.5139C263.402 52.3019 263.682 52.2403 263.892 52.376C263.986 52.4362 264.049 52.5242 264.079 52.6217C264.273 52.5687 264.494 52.5109 264.737 52.4512C264.98 52.3919 265.224 52.5426 265.283 52.7866C265.342 53.0312 265.193 53.2775 264.95 53.3369C264.266 53.5042 263.783 53.6542 263.55 53.726C263.484 53.7466 263.438 53.7608 263.414 53.7671L262.336 54.0598L262.907 53.0942ZM264.548 50.6066C264.981 49.9907 265.436 49.368 265.901 48.7558C266.053 48.5562 266.337 48.518 266.535 48.671C266.733 48.8246 266.772 49.1098 266.62 49.3101C266.162 49.913 265.713 50.5266 265.287 51.1332C265.142 51.3385 264.86 51.3873 264.656 51.2417C264.621 51.2164 264.59 51.1871 264.564 51.1542C264.441 50.9998 264.429 50.7764 264.548 50.6066ZM266.62 52.5235C266.583 52.2746 266.755 52.0428 267.002 52.0066C267.783 51.8912 268.556 51.8164 269.302 51.7841C269.551 51.7728 269.763 51.9678 269.774 52.2194C269.784 52.4708 269.591 52.6837 269.341 52.6944C268.626 52.7257 267.884 52.7976 267.133 52.9085C266.968 52.933 266.811 52.8642 266.714 52.7419C266.665 52.6808 266.632 52.6064 266.62 52.5235ZM271.132 52.2414C271.153 51.9905 271.371 51.8037 271.62 51.8241C272.421 51.89 273.196 52.0132 273.923 52.1896C274.166 52.2482 274.316 52.4946 274.257 52.7396C274.198 52.9844 273.954 53.1348 273.711 53.0757C273.03 52.9099 272.301 52.7948 271.547 52.7328C271.417 52.7219 271.305 52.6576 271.23 52.5632C271.16 52.4755 271.122 52.3621 271.132 52.2414ZM267.319 46.9575C267.805 46.3623 268.304 45.7746 268.801 45.2116C268.966 45.0233 269.253 45.0062 269.439 45.1733C269.627 45.3423 269.643 45.6287 269.477 45.8169C268.988 46.3719 268.497 46.9505 268.018 47.5369C267.859 47.7314 267.573 47.7591 267.38 47.5991C267.356 47.5785 267.334 47.5559 267.314 47.5317C267.184 47.3667 267.18 47.1267 267.319 46.9575ZM275.542 53.1787C275.646 52.9496 275.914 52.8483 276.142 52.9528C276.657 53.1891 277.152 53.4637 277.612 53.7689C277.794 53.8896 277.973 54.0032 278.148 54.1105C278.361 54.2412 278.43 54.5214 278.301 54.7366C278.171 54.9517 277.893 55.0205 277.679 54.89C277.494 54.7769 277.306 54.6569 277.115 54.53C276.694 54.2507 276.24 53.9992 275.767 53.7823C275.7 53.7517 275.644 53.7066 275.601 53.6526C275.498 53.5226 275.469 53.3405 275.542 53.1787ZM281.704 59.6326C281.833 59.5016 282.022 59.4662 282.184 59.5274C282.579 59.406 283.02 59.378 283.543 59.4353C283.791 59.4626 283.971 59.6873 283.944 59.9375C283.917 60.1876 283.693 60.3685 283.445 60.341C282.811 60.2717 282.375 60.3571 281.987 60.6262L281.411 59.9282L281.704 59.6326ZM279.507 55.3594C279.6 55.1258 279.863 55.0121 280.095 55.1055C280.813 55.3949 281.507 55.5807 282.158 55.6576C282.406 55.6869 282.583 55.9139 282.554 56.1633C282.525 56.4135 282.3 56.5923 282.052 56.5632C281.322 56.4769 280.551 56.2712 279.759 55.9519C279.684 55.9216 279.621 55.8732 279.574 55.8137C279.475 55.6896 279.444 55.5173 279.507 55.3594ZM270.347 43.5223C270.876 42.9671 271.419 42.4203 271.961 41.8967C272.141 41.7226 272.427 41.7283 272.6 41.9101C272.775 42.0923 272.767 42.3805 272.587 42.5548C272.054 43.0694 271.52 43.6073 271 44.1535C270.827 44.3351 270.541 44.3412 270.361 44.1669C270.346 44.1526 270.332 44.1378 270.32 44.1221C270.18 43.9464 270.188 43.6891 270.347 43.5223ZM283.287 58.0042C283.894 57.3712 284.415 56.8153 284.836 56.3514C285.005 56.1655 285.291 56.1525 285.476 56.3223C285.656 56.4935 285.673 56.7803 285.504 56.9662C285.077 57.4362 284.551 57.9983 283.939 58.6373C283.765 58.8185 283.479 58.8233 283.299 58.6487C283.285 58.6346 283.271 58.6201 283.259 58.605C283.119 58.4289 283.128 58.1712 283.287 58.0042ZM285.264 60.2557C285.322 60.011 285.566 59.8603 285.809 59.9191C286.454 60.0749 287.164 60.2371 287.989 60.3666C288.236 60.4055 288.404 60.6387 288.366 60.8869C288.328 61.1357 288.096 61.306 287.849 61.2673C286.992 61.1332 286.261 60.9658 285.598 60.8055C285.496 60.7808 285.411 60.7235 285.35 60.6471C285.266 60.541 285.23 60.3982 285.264 60.2557ZM283.909 56.0758C283.841 55.8335 283.981 55.5819 284.222 55.5137C284.921 55.3148 285.423 54.9967 285.756 54.7862C285.896 54.6973 286.011 54.6266 286.1 54.583C286.148 54.5596 286.191 54.5421 286.228 54.5292C286.464 54.4482 286.708 54.581 286.789 54.8194C286.87 55.0575 286.73 55.3226 286.493 55.4037C286.427 55.4362 286.342 55.4916 286.237 55.558C285.884 55.7819 285.292 56.1564 284.468 56.3908C284.287 56.4423 284.102 56.3757 283.991 56.2367C283.955 56.1907 283.926 56.1364 283.909 56.0758ZM273.645 40.3421C274.158 39.8898 274.681 39.4489 275.198 39.0321L275.401 38.8694C275.597 38.7137 275.88 38.7462 276.036 38.9425L276.037 38.9439C276.192 39.1412 276.159 39.428 275.963 39.5839L275.764 39.7437C275.257 40.1521 274.744 40.5844 274.241 41.028C274.053 41.1939 273.767 41.1744 273.602 40.985C273.598 40.9798 273.593 40.9746 273.589 40.9692C273.439 40.7803 273.462 40.5033 273.645 40.3421ZM289.715 61.0226C289.726 60.7712 289.937 60.5762 290.187 60.5871C290.905 60.6187 291.649 60.6121 292.4 60.5673C292.649 60.5524 292.864 60.7435 292.879 60.9951C292.894 61.2464 292.704 61.4621 292.454 61.4771C291.672 61.5239 290.896 61.5308 290.148 61.4978C290.012 61.4919 289.893 61.4262 289.814 61.3269C289.748 61.2439 289.71 61.1375 289.715 61.0226ZM294.227 60.8521C294.19 60.6032 294.361 60.3712 294.608 60.3341C294.764 60.3107 294.922 60.286 295.083 60.2591C295.653 60.1642 296.218 60.0367 296.763 59.8799C297.003 59.8112 297.255 59.9514 297.322 60.1933C297.391 60.4353 297.252 60.6876 297.011 60.7567C296.433 60.9228 295.834 61.0582 295.23 61.1583C295.065 61.1858 294.902 61.2116 294.741 61.2358C294.576 61.2605 294.418 61.1919 294.321 61.0692C294.273 61.0085 294.24 60.9346 294.227 60.8521ZM277.124 38.1262C276.981 37.9203 277.03 37.6359 277.234 37.4912C277.867 37.0425 278.511 36.6155 279.146 36.2219C279.36 36.0898 279.645 36.156 279.769 36.3714C279.9 36.5859 279.833 36.8666 279.62 36.9982C279 37.3821 278.373 37.7985 277.755 38.2367C277.558 38.376 277.289 38.3357 277.141 38.1489C277.136 38.1416 277.13 38.1339 277.124 38.1262ZM298.597 59.7203C298.492 59.4916 298.592 59.2214 298.82 59.1162C299.48 58.8117 300.126 58.4523 300.738 58.0478C300.946 57.9099 301.233 57.9648 301.364 58.1789C301.501 58.3892 301.443 58.6717 301.234 58.8098C300.584 59.2394 299.899 59.6212 299.196 59.9451C299.004 60.0339 298.781 59.9749 298.655 59.8157C298.632 59.7871 298.612 59.7551 298.597 59.7203ZM280.949 35.695C280.833 35.4717 280.919 35.1964 281.141 35.0798C281.827 34.7183 282.525 34.3844 283.215 34.0869C283.445 33.9882 283.711 34.0955 283.809 34.3269C283.908 34.5583 283.801 34.8266 283.571 34.9255C282.903 35.2132 282.226 35.5371 281.559 35.888C281.364 35.9905 281.129 35.9357 280.997 35.7689C280.979 35.7462 280.963 35.7216 280.949 35.695ZM302.479 56.7023C303.021 56.2169 303.539 55.6848 304.017 55.1194C304.179 54.928 304.464 54.905 304.654 55.0682C304.845 55.2325 304.867 55.5189 304.706 55.7107C304.2 56.308 303.654 56.8708 303.08 57.3837C302.893 57.551 302.607 57.5337 302.441 57.3458C302.436 57.34 302.431 57.3337 302.426 57.3273C302.277 57.1392 302.298 56.8641 302.479 56.7023ZM285.079 33.8435C285 33.6044 285.13 33.3469 285.367 33.2684C286.103 33.0248 286.85 32.8164 287.586 32.6485C287.831 32.5926 288.073 32.748 288.128 32.9925C288.183 33.2378 288.03 33.4819 287.786 33.5373C287.078 33.6989 286.359 33.9 285.65 34.1344C285.465 34.1955 285.27 34.1303 285.155 33.986C285.122 33.9446 285.096 33.8967 285.079 33.8435ZM305.325 53.3394C305.919 52.401 306.22 51.696 306.274 51.5141L306.418 50.516C306.454 50.2671 306.684 50.0942 306.931 50.1305C307.178 50.1664 307.349 50.398 307.314 50.6473L307.173 51.6219L307.165 51.6207C307.068 52.2732 306.099 53.8119 306.088 53.8289C305.954 54.0412 305.675 54.1037 305.464 53.9685C305.42 53.9408 305.384 53.9067 305.353 53.8687C305.236 53.7208 305.218 53.508 305.325 53.3394ZM289.465 32.7582C289.435 32.5082 289.612 32.2812 289.86 32.2512C290.626 32.1587 291.402 32.1071 292.164 32.0982C292.413 32.0957 292.618 32.298 292.621 32.5489C292.624 32.8005 292.424 33.0069 292.173 33.0101C291.444 33.0183 290.702 33.0673 289.968 33.1566C289.806 33.1758 289.655 33.1073 289.56 32.9882C289.509 32.9242 289.475 32.8457 289.465 32.7582ZM293.976 32.6082C294 32.3578 294.222 32.1744 294.471 32.1998C295.23 32.2753 295.997 32.3951 296.752 32.5553C296.997 32.6069 297.153 32.8492 297.102 33.0953C297.05 33.3417 296.81 33.4996 296.566 33.4475C295.843 33.2941 295.108 33.1794 294.382 33.1067C294.255 33.0942 294.146 33.0305 294.073 32.938C294.002 32.848 293.964 32.7314 293.976 32.6082ZM306.743 48.2609L307.068 46.0057C307.104 45.7567 307.333 45.5841 307.581 45.62C307.828 45.6559 307.999 45.8873 307.964 46.1364L307.639 48.3916C307.603 48.6407 307.373 48.8132 307.126 48.7773C307.007 48.76 306.907 48.698 306.837 48.6108C306.762 48.5158 306.724 48.3909 306.743 48.2609ZM298.411 33.4476C298.488 33.208 298.743 33.0764 298.981 33.1535C299.695 33.3855 300.42 33.6608 301.135 33.9723C301.365 34.0721 301.47 34.3401 301.371 34.5716C301.272 34.8025 301.005 34.9089 300.776 34.8091C300.088 34.5094 299.39 34.2442 298.703 34.0212C298.615 33.9926 298.542 33.9398 298.489 33.8725C298.397 33.7571 298.363 33.5991 298.411 33.4476ZM307.392 43.7503L307.717 41.495C307.753 41.246 307.983 41.0734 308.23 41.1092C308.477 41.1453 308.649 41.3766 308.613 41.6259L308.288 43.881C308.252 44.1301 308.023 44.3026 307.775 44.2667C307.657 44.2496 307.556 44.1876 307.487 44.1003C307.411 44.0053 307.374 43.8803 307.392 43.7503ZM302.588 35.1705C302.708 34.9492 302.982 34.8671 303.202 34.9873C303.857 35.3455 304.521 35.743 305.174 36.1692C305.383 36.3067 305.444 36.5883 305.307 36.7996C305.172 37.0107 304.891 37.071 304.681 36.9342C304.048 36.521 303.405 36.1353 302.77 35.7884C302.716 35.7584 302.669 35.7187 302.633 35.6726C302.523 35.5339 302.499 35.3366 302.588 35.1705ZM306.417 37.5846C306.567 37.3835 306.851 37.3433 307.051 37.4948C307.631 37.9353 308.217 38.4091 308.792 38.9033L308.982 39.0667L308.938 39.3709C308.902 39.6198 308.672 39.7923 308.425 39.7558C308.264 39.7325 308.135 39.6266 308.075 39.4859C307.555 39.0434 307.028 38.6189 306.506 38.2225C306.475 38.1991 306.448 38.1723 306.424 38.143C306.298 37.9844 306.29 37.7542 306.417 37.5846Z" fill="#91B3FA"/>
<path d="M306.895 46.5006C306.895 46.5006 302.268 55.4593 295.372 52.7472C288.477 50.035 282.188 45.5748 278.99 46.9677C278.99 46.9677 291.176 31.4986 307.015 42.94L306.895 46.5006Z" fill="url(#paint28_linear_180133_38404)"/>
<path d="M325.069 57.3253C325.069 57.3253 323.872 67.1665 320.764 68.3888C317.808 69.5515 295.611 67.5405 293.452 67.3414C293.355 67.3324 293.284 67.2501 293.286 67.1519C293.296 66.3396 293.689 65.5831 294.346 65.1124C297.521 62.8392 307.057 56.1333 310.586 55.0372C314.848 53.7135 325.069 57.3253 325.069 57.3253Z" fill="url(#paint29_linear_180133_38404)"/>
<path d="M301.433 66.7165C301.471 66.7642 301.527 66.7967 301.593 66.8015C301.715 66.8105 313.89 67.7001 319.146 67.8776C320.082 67.9096 320.949 67.3823 321.355 66.5353C321.995 65.1994 323.167 62.5446 323.823 59.7764C323.852 59.6544 323.778 59.531 323.655 59.5019C323.534 59.4726 323.412 59.5483 323.383 59.6707C322.737 62.3971 321.579 65.0176 320.947 66.3369C320.619 67.0219 319.918 67.4478 319.161 67.4221C313.914 67.2449 301.748 66.3562 301.626 66.3471C301.501 66.3378 301.393 66.4323 301.383 66.558C301.379 66.6173 301.398 66.6732 301.433 66.7165Z" fill="url(#paint30_linear_180133_38404)"/>
<path d="M325.365 34.2927C325.365 34.2927 324.421 24.4236 321.345 23.1207C318.42 21.8815 296.179 23.3132 294.016 23.4559C293.918 23.4624 293.846 23.5429 293.844 23.6411C293.834 24.4532 294.207 25.2198 294.852 25.7073C297.967 28.0627 307.328 35.0148 310.828 36.2025C315.054 37.6368 325.365 34.2927 325.365 34.2927Z" fill="url(#paint31_linear_180133_38404)"/>
<path d="M301.974 24.5776C302.017 24.6326 302.086 24.6665 302.161 24.6631C302.284 24.6572 314.469 24.0858 319.719 24.0456C320.476 24.0397 321.166 24.484 321.476 25.1769C322.074 26.5124 323.164 29.163 323.74 31.9046C323.764 32.0281 323.885 32.1065 324.008 32.0804C324.13 32.0546 324.208 31.9337 324.182 31.8103C323.627 29.1662 322.629 26.6417 321.889 24.9894C321.505 24.1322 320.652 23.5826 319.715 23.5899C314.456 23.6301 302.262 24.2024 302.14 24.2078C302.015 24.2137 301.919 24.3205 301.924 24.446C301.927 24.4958 301.945 24.5413 301.974 24.5776Z" fill="url(#paint32_linear_180133_38404)"/>
<path d="M358.129 57.6282C353.56 59.0639 348.29 60.0278 342.426 59.9685C324.22 59.7844 310.87 56.4773 307.099 55.4348C306.417 55.2462 305.9 54.6926 305.737 53.9992C304.453 48.5357 304.484 43.0837 305.821 37.6432C306.072 36.6198 306.878 35.8258 307.897 35.5816C312.316 34.5216 325.364 31.825 342.784 32.103C348.603 32.1959 353.812 33.2807 358.318 34.8162C360.724 43.9378 359.248 52.7085 358.129 57.6282Z" fill="#7D97F4"/>
<path d="M358.319 34.8164C368.274 38.2087 374.8 43.8023 376.893 45.7759C377.302 46.1616 377.294 46.8144 376.875 47.1894C374.74 49.101 368.11 54.4918 358.129 57.6282C359.248 52.7085 360.724 43.9378 358.319 34.8164Z" fill="url(#paint33_linear_180133_38404)"/>
<path d="M343.921 36.8376C339.205 36.7762 335.329 40.8588 335.264 45.9569C335.198 51.0547 338.968 55.2371 343.684 55.2985C348.399 55.3599 352.275 51.2772 352.341 46.1794C352.406 41.0815 348.636 36.8992 343.921 36.8376Z" fill="url(#paint34_linear_180133_38404)"/>
<path d="M344.139 38.4586C340.381 38.4094 337.293 41.6627 337.241 45.7248C337.189 49.7868 340.192 53.1194 343.95 53.1684C347.707 53.2173 350.795 49.9641 350.848 45.9021C350.9 41.84 347.896 38.5075 344.139 38.4586Z" fill="url(#paint35_linear_180133_38404)"/>
<path d="M345.243 50.9811C345.299 51.0509 345.393 51.0841 345.483 51.0575C347.803 50.375 349.446 48.1264 349.479 45.5887C349.487 44.9496 349.396 44.3205 349.209 43.7187C349.172 43.5984 349.044 43.532 348.925 43.5696C348.806 43.6071 348.739 43.735 348.777 43.855C348.95 44.4109 349.034 44.9925 349.026 45.583C348.997 47.9219 347.487 49.9934 345.356 50.62C345.236 50.6555 345.167 50.7818 345.203 50.9025C345.211 50.9321 345.225 50.9584 345.243 50.9811Z" fill="#91B3FA"/>
<path d="M326.721 39.747C323.605 39.7063 321.045 42.4036 321.002 45.7713C320.958 49.1392 323.449 51.9022 326.564 51.9429C329.679 51.9837 332.24 49.2863 332.283 45.9185C332.326 42.5506 329.836 39.7876 326.721 39.747Z" fill="url(#paint36_linear_180133_38404)"/>
<path d="M326.865 40.8173C324.383 40.7849 322.343 42.934 322.308 45.6176C322.274 48.3012 324.258 50.5028 326.74 50.5351C329.222 50.5674 331.263 48.4183 331.297 45.7348C331.332 43.0514 329.347 40.8496 326.865 40.8173Z" fill="url(#paint37_linear_180133_38404)"/>
<path d="M327.535 49.1385C327.59 49.2083 327.684 49.2417 327.775 49.2149C329.34 48.7547 330.448 47.239 330.47 45.529C330.476 45.0986 330.414 44.6745 330.287 44.269C330.251 44.149 330.123 44.0822 330.004 44.1199C329.885 44.1577 329.819 44.2854 329.856 44.4056C329.968 44.7649 330.022 45.141 330.017 45.5231C329.998 47.0349 329.024 48.3729 327.648 48.7774C327.528 48.8129 327.459 48.9394 327.494 49.0599C327.503 49.0895 327.517 49.1158 327.535 49.1385Z" fill="#91B3FA"/>
<path d="M256.824 52.7492L253.856 53.4817C253.578 53.5503 253.298 53.3791 253.23 53.0996C253.162 52.82 253.332 52.5378 253.609 52.4692L253.643 52.4608L256.537 51.7351L256.573 51.7262C256.853 51.6558 257.137 51.8278 257.207 52.1101C257.277 52.3925 257.106 52.6783 256.826 52.7487L256.824 52.7492Z" fill="#BDD0FB"/>
<path d="M250.847 54.0078L247.814 54.3378C247.536 54.3679 247.286 54.1654 247.256 53.8853C247.226 53.6051 247.427 53.3535 247.705 53.3231L247.734 53.3199L250.704 52.9858L250.736 52.9822C251.017 52.9506 251.27 53.1546 251.301 53.4376C251.333 53.7208 251.131 53.9758 250.849 54.0076L250.847 54.0078Z" fill="#BDD0FB"/>
<path d="M244.769 54.4843L241.726 54.4616C241.452 54.4595 241.232 54.2343 241.234 53.9587C241.236 53.683 241.46 53.4614 241.733 53.4634H241.757L244.748 53.4748H244.775C245.051 53.4759 245.275 53.7027 245.274 53.9814C245.273 54.2602 245.048 54.4854 244.771 54.4843H244.769Z" fill="#BDD0FB"/>
<path d="M238.689 54.2831L235.664 53.9617C235.398 53.9335 235.205 53.6931 235.233 53.4253C235.261 53.1572 235.5 52.9629 235.766 52.991L235.785 52.9929L238.768 53.2988L238.79 53.3011C239.059 53.3286 239.255 53.571 239.228 53.8422C239.2 54.1135 238.96 54.311 238.69 54.2833L238.689 54.2831Z" fill="#BDD0FB"/>
<path d="M232.658 53.5096L229.673 52.9392C229.416 52.8901 229.248 52.6405 229.296 52.3817C229.345 52.123 229.593 51.953 229.85 52.0021L229.866 52.0051L232.817 52.5578L232.835 52.5612C233.095 52.61 233.266 52.8619 233.218 53.1239C233.17 53.3858 232.92 53.5587 232.66 53.51L232.658 53.5096Z" fill="#BDD0FB"/>
<path d="M226.713 52.2609L223.779 51.4838C223.532 51.4182 223.384 51.1636 223.449 50.9148C223.514 50.6661 223.767 50.5173 224.014 50.5829L224.027 50.5861L226.935 51.345L226.95 51.3487C227.2 51.4141 227.35 51.6712 227.285 51.9234C227.22 52.1754 226.965 52.3268 226.715 52.2616L226.713 52.2609Z" fill="#BDD0FB"/>
<path d="M220.87 50.6163L217.989 49.6663C217.752 49.5881 217.623 49.3313 217.701 49.0927C217.778 48.854 218.033 48.7238 218.27 48.802L218.28 48.8052L221.141 49.737L221.153 49.7409C221.393 49.8192 221.525 50.0786 221.447 50.3204C221.37 50.5622 221.112 50.6951 220.872 50.6168L220.87 50.6163Z" fill="#BDD0FB"/>
<path d="M215.135 48.6402L212.307 47.5441C212.08 47.4561 211.967 47.1995 212.054 46.9709C212.142 46.7423 212.396 46.6282 212.623 46.7163L212.631 46.7193L215.444 47.7973L215.454 47.8011C215.684 47.8893 215.799 48.1488 215.712 48.3805C215.624 48.6123 215.367 48.7289 215.136 48.6405L215.135 48.6402Z" fill="#BDD0FB"/>
<path d="M209.505 46.3837L206.73 45.1633C206.512 45.0678 206.413 44.8129 206.508 44.594C206.603 44.3751 206.856 44.2751 207.073 44.3708L207.079 44.3736L209.843 45.5767L209.852 45.5803C210.072 45.6762 210.173 45.934 210.078 46.156C209.983 46.3781 209.727 46.4803 209.507 46.3844L209.505 46.3837Z" fill="#BDD0FB"/>
<path d="M203.979 43.8873L201.253 42.5594C201.045 42.458 200.958 42.2062 201.059 41.9968C201.159 41.7873 201.41 41.6996 201.618 41.8009L201.623 41.8036L204.34 43.1146L204.347 43.118C204.558 43.22 204.647 43.4748 204.546 43.6875C204.445 43.9002 204.192 43.9898 203.981 43.888L203.979 43.8873Z" fill="#BDD0FB"/>
<path d="M198.552 41.1831L195.873 39.7614C195.674 39.6558 195.598 39.4076 195.703 39.2072C195.808 39.0069 196.054 38.9301 196.253 39.0356L196.258 39.038L198.929 40.4437L198.935 40.4469C199.137 40.5533 199.215 40.8044 199.11 41.0078C199.004 41.2113 198.755 41.2901 198.553 41.1839L198.552 41.1831Z" fill="#BDD0FB"/>
<path d="M193.218 38.2964L190.585 36.7914C190.395 36.6826 190.328 36.4391 190.437 36.2475C190.544 36.0559 190.786 35.9887 190.977 36.0975L190.98 36.0996L193.608 37.5891L193.613 37.5921C193.807 37.7016 193.875 37.9484 193.767 38.143C193.658 38.3378 193.413 38.4068 193.22 38.2973L193.218 38.2964Z" fill="#BDD0FB"/>
<path d="M187.974 35.25L185.382 33.6741C185.197 33.5618 185.138 33.32 185.25 33.1339C185.361 32.948 185.601 32.8882 185.786 33.0005L185.79 33.003L188.374 34.5709L188.378 34.5736C188.564 34.6861 188.624 34.9289 188.512 35.1157C188.4 35.3025 188.159 35.3627 187.974 35.2502L187.974 35.25Z" fill="#BDD0FB"/>
<path d="M182.812 32.0637L180.262 30.4203C180.082 30.3041 180.029 30.0626 180.144 29.8812C180.26 29.6996 180.499 29.6466 180.68 29.7628L180.684 29.7653L183.227 31.4008L183.231 31.4033C183.412 31.5199 183.465 31.7623 183.349 31.9446C183.234 32.1271 182.993 32.1805 182.812 32.064L182.812 32.0637Z" fill="#BDD0FB"/>
<path d="M177.733 28.7456L175.224 27.0405C175.048 26.9208 175.002 26.6801 175.12 26.5028C175.239 26.3255 175.478 26.2787 175.654 26.3983L175.658 26.4006L178.16 28.0981L178.164 28.1006C178.341 28.2206 178.388 28.4622 178.269 28.6405C178.15 28.8187 177.91 28.8658 177.733 28.7458L177.733 28.7456Z" fill="#BDD0FB"/>
<path d="M172.736 25.3061L170.269 23.5441C170.097 23.4212 170.057 23.1814 170.179 23.0082C170.3 22.8352 170.539 22.7943 170.71 22.917L170.714 22.9193L173.175 24.6737L173.179 24.6762C173.351 24.7995 173.392 25.0402 173.27 25.2141C173.148 25.388 172.909 25.4293 172.736 25.3062V25.3061Z" fill="#BDD0FB"/>
<path d="M167.792 21.8431L165.215 20.3038L165.194 20.2915C165.014 20.1842 164.955 19.9504 165.062 19.7694C165.168 19.5885 165.4 19.5285 165.58 19.6358L168.2 21.197C168.38 21.3047 168.44 21.5394 168.333 21.7212C168.226 21.9031 167.993 21.9633 167.813 21.8556L167.812 21.8554L167.792 21.8431Z" fill="#BDD0FB"/>
<path d="M162.546 18.9322L159.797 17.7343L159.775 17.7248C159.584 17.642 159.497 17.4193 159.579 17.2277C159.661 17.0361 159.882 16.9477 160.072 17.0307L162.867 18.245C163.058 18.3281 163.146 18.5514 163.064 18.7438C162.981 18.9364 162.759 19.025 162.568 18.942L162.568 18.9418L162.546 18.9322Z" fill="#BDD0FB"/>
<path d="M156.977 16.7148L154.099 15.8775L154.076 15.8709C153.878 15.8134 153.764 15.6055 153.821 15.4064C153.879 15.2075 154.085 15.0925 154.282 15.1501L157.207 15.9978C157.405 16.0553 157.52 16.2639 157.463 16.4637C157.406 16.6635 157.199 16.7791 157 16.7214L157 16.7212L156.977 16.7148Z" fill="#BDD0FB"/>
<path d="M151.173 15.2252L148.213 14.7614L148.19 14.7579C147.988 14.7263 147.85 14.5361 147.881 14.333C147.913 14.1302 148.101 13.9911 148.303 14.0225L151.31 14.4905C151.513 14.5221 151.651 14.7129 151.62 14.9168C151.589 15.1207 151.399 15.2604 151.197 15.2289H151.196L151.173 15.2252Z" fill="#BDD0FB"/>
<path d="M145.229 14.4879L142.234 14.405L142.211 14.4043C142.009 14.3988 141.849 14.229 141.855 14.0254C141.86 13.8216 142.028 13.6611 142.231 13.6666L145.272 13.7477C145.475 13.7531 145.636 13.9234 145.63 14.1279C145.625 14.3324 145.456 14.4938 145.253 14.4884H145.252L145.229 14.4879Z" fill="#BDD0FB"/>
<path d="M139.24 14.5136L136.259 14.8136L136.236 14.816C136.036 14.836 135.858 14.6892 135.838 14.4881C135.818 14.287 135.963 14.1076 136.163 14.0876L139.19 13.7797C139.391 13.7594 139.57 13.9065 139.59 14.1085C139.61 14.3104 139.464 14.4906 139.263 14.511H139.263L139.24 14.5136Z" fill="#BDD0FB"/>
<path d="M133.302 15.3042L130.383 15.9831L130.36 15.9883C130.166 16.0333 129.973 15.9115 129.928 15.7163C129.883 15.5209 130.004 15.3261 130.198 15.2809L133.162 14.5886C133.356 14.5431 133.551 14.6652 133.596 14.8613C133.641 15.0574 133.52 15.2533 133.325 15.2986L133.325 15.2988L133.302 15.3042Z" fill="#BDD0FB"/>
<path d="M127.512 16.8482L124.701 17.8956L124.68 17.9034C124.494 17.9723 124.289 17.8772 124.221 17.6907C124.152 17.5043 124.246 17.2975 124.431 17.2284L127.284 16.1623C127.469 16.0929 127.676 16.1882 127.745 16.3754C127.814 16.5625 127.719 16.7706 127.533 16.84L127.533 16.8402L127.512 16.8482Z" fill="#BDD0FB"/>
<path d="M121.965 19.1217L119.326 20.5449L119.303 20.5572C119.131 20.6503 118.916 20.5849 118.824 20.411C118.731 20.2372 118.796 20.0212 118.968 19.9281L121.652 18.4772C121.825 18.3837 122.041 18.4492 122.134 18.6235C122.227 18.7978 122.162 19.0151 121.989 19.1087L121.988 19.1088L121.965 19.1217Z" fill="#BDD0FB"/>
<path d="M116.792 22.1535L114.368 23.9269L114.35 23.9399C114.193 24.0548 113.973 24.0198 113.859 23.8615C113.745 23.7033 113.78 23.4823 113.937 23.3674L116.395 21.5651C116.553 21.4496 116.773 21.4848 116.888 21.6433C117.003 21.8021 116.968 22.0244 116.81 22.1398L116.81 22.1399L116.792 22.1535Z" fill="#BDD0FB"/>
<path d="M112.056 25.8495L109.861 27.9061L109.846 27.92C109.706 28.052 109.485 28.044 109.354 27.9022C109.223 27.7604 109.231 27.5386 109.372 27.4067L111.594 25.3197C111.735 25.187 111.957 25.1949 112.088 25.3372C112.22 25.4795 112.212 25.7026 112.071 25.8352L112.071 25.8354L112.056 25.8495Z" fill="#BDD0FB"/>
<path d="M107.787 30.0888L105.839 32.387L105.826 32.4022C105.702 32.5483 105.484 32.5656 105.339 32.4409C105.194 32.3163 105.177 32.097 105.301 31.9509L107.272 29.6204C107.396 29.4736 107.615 29.4558 107.761 29.5809C107.907 29.7061 107.924 29.9265 107.8 30.0734L107.8 30.0738L107.787 30.0888Z" fill="#BDD0FB"/>
<path d="M104.025 34.7936L102.353 37.3022L102.342 37.3191C102.237 37.4772 102.024 37.5193 101.867 37.4132C101.71 37.307 101.668 37.0932 101.773 36.935L103.465 34.3909C103.571 34.232 103.784 34.1895 103.942 34.2959C104.1 34.4024 104.142 34.6175 104.036 34.7763L104.036 34.7766L104.025 34.7936Z" fill="#BDD0FB"/>
<path d="M100.833 39.9066L99.4779 42.6003L99.468 42.6199C99.3832 42.7883 99.1792 42.8557 99.012 42.7703C98.8448 42.6849 98.778 42.4796 98.8626 42.3112L100.235 39.5771C100.32 39.408 100.525 39.3401 100.693 39.4257C100.861 39.5112 100.928 39.7176 100.843 39.8869L100.843 39.8871L100.833 39.9066Z" fill="#BDD0FB"/>
<path d="M98.3006 45.3762L97.3176 48.2266L97.3096 48.2496C97.2488 48.4264 97.0572 48.5198 96.8817 48.4584C96.7061 48.397 96.6133 48.2043 96.6742 48.0277L97.6702 45.1303C97.7312 44.9528 97.9236 44.8587 98.1 44.9202C98.2762 44.9816 98.3696 45.1755 98.3086 45.353L98.3084 45.3534L98.3006 45.3762Z" fill="#BDD0FB"/>
<path d="M96.5467 51.1424L96.0076 54.107L96.0026 54.1344C95.9695 54.3167 95.7959 54.4374 95.6149 54.404C95.4339 54.3706 95.314 54.1962 95.3472 54.0138L95.8932 50.9945C95.9264 50.8113 96.1006 50.6899 96.2825 50.7233C96.4644 50.7567 96.585 50.9322 96.5518 51.1154L96.5467 51.1424Z" fill="#BDD0FB"/>
<path d="M95.7194 57.1051L95.7008 60.1145L95.7006 60.1458C95.6996 60.3294 95.5508 60.4774 95.3686 60.4761C95.1861 60.4751 95.0393 60.3256 95.0404 60.142L95.0564 57.0706C95.0572 56.8861 95.2065 56.7374 95.3897 56.7383C95.5728 56.7392 95.7205 56.8897 95.7196 57.074V57.0744L95.7194 57.1051Z" fill="#BDD0FB"/>
<path d="M95.9668 63.1101L96.5265 66.0639L96.5327 66.0967C96.5666 66.2755 96.4503 66.448 96.2728 66.4821C96.0953 66.5162 95.9243 66.3992 95.8904 66.2207L95.3153 63.2019C95.2811 63.0225 95.3979 62.8491 95.5761 62.8146C95.7542 62.7801 95.9266 62.8976 95.9606 63.0773V63.0776L95.9668 63.1101Z" fill="#BDD0FB"/>
<path d="M97.3814 68.9453L98.5241 71.724L98.5367 71.7546C98.6052 71.921 98.5268 72.1121 98.3614 72.181C98.1962 72.2499 98.0066 72.1712 97.9382 72.0047L96.7674 69.1656C96.6985 68.9985 96.7772 68.8065 96.9431 68.7371C97.109 68.6676 97.2996 68.7469 97.3686 68.914L97.3688 68.9144L97.3814 68.9453Z" fill="#BDD0FB"/>
<path d="M99.9779 74.3306C100.532 75.1543 101.158 75.9272 101.858 76.6254C101.984 76.7513 101.985 76.9563 101.86 77.0832C101.735 77.2104 101.532 77.2115 101.406 77.0856C100.673 76.3563 100.019 75.5509 99.4432 74.6954C99.343 74.5466 99.3815 74.3445 99.5292 74.2436C99.6767 74.1427 99.8776 74.1816 99.9777 74.3302L99.9779 74.3306Z" fill="#BDD0FB"/>
<path d="M104.163 78.4739C104.995 79 105.888 79.4288 106.818 79.748C106.984 79.8052 107.073 79.9875 107.016 80.1552C106.96 80.3229 106.779 80.4125 106.613 80.3554C105.636 80.0213 104.698 79.5716 103.823 79.0202C103.674 78.9257 103.628 78.727 103.722 78.5761C103.816 78.4254 104.013 78.3795 104.163 78.4739Z" fill="#BDD0FB"/>
<path d="M109.693 80.3782C110.672 80.4794 111.662 80.4718 112.641 80.3637C112.814 80.3446 112.97 80.4705 112.989 80.645C113.008 80.8194 112.883 80.9762 112.71 80.9953C111.688 81.1091 110.653 81.1184 109.628 81.0134C109.454 80.9957 109.327 80.8391 109.345 80.6636C109.363 80.4882 109.518 80.3603 109.692 80.3782H109.693Z" fill="#BDD0FB"/>
<path d="M115.532 79.7508C116.475 79.4539 117.39 79.068 118.265 78.6046C118.417 78.5237 118.606 78.5828 118.687 78.7367C118.767 78.8907 118.708 79.0807 118.556 79.1616C117.649 79.643 116.699 80.0444 115.72 80.3542C115.555 80.4066 115.378 80.3139 115.327 80.1473C115.275 79.9807 115.367 79.8032 115.532 79.7508H115.532Z" fill="#BDD0FB"/>
<path d="M120.758 76.9925C121.542 76.385 122.275 75.7107 122.948 74.9806C123.064 74.8543 123.26 74.847 123.385 74.9641C123.51 75.0813 123.518 75.2782 123.401 75.4043C122.706 76.1604 121.949 76.8588 121.138 77.4886C121.002 77.5943 120.807 77.569 120.702 77.432C120.597 77.295 120.622 77.0982 120.758 76.9927L120.758 76.9925Z" fill="#BDD0FB"/>
<path d="M124.78 72.6323L125.533 71.3414C125.799 70.9199 125.997 70.4592 126.22 70.0123L126.229 69.9941C126.305 69.8417 126.489 69.7801 126.64 69.8566C126.791 69.933 126.852 70.1178 126.777 70.2699C126.549 70.7303 126.345 71.2026 126.071 71.6399L125.294 72.9742C125.208 73.1217 125.02 73.1712 124.873 73.0848C124.727 72.9982 124.678 72.8085 124.764 72.661L124.764 72.6608L124.78 72.6323Z" fill="#BDD0FB"/>
<path d="M127.256 67.2082C127.528 66.2482 127.719 65.266 127.819 64.2748C127.836 64.1069 127.985 63.9846 128.152 64.0016C128.318 64.0187 128.44 64.1682 128.423 64.3362C128.32 65.3651 128.122 66.383 127.843 67.376C127.797 67.5393 127.629 67.6339 127.467 67.5876C127.304 67.5414 127.21 67.3714 127.256 67.2082Z" fill="#BDD0FB"/>
<path d="M127.839 61.2964C127.751 60.3061 127.566 59.3246 127.29 58.3698C127.243 58.2095 127.335 58.0414 127.494 57.9946C127.653 57.9478 127.82 58.0396 127.866 58.2C128.155 59.1918 128.348 60.2121 128.44 61.2418C128.455 61.4091 128.333 61.5569 128.167 61.5721C128.001 61.5873 127.854 61.4641 127.839 61.2968V61.2964Z" fill="#BDD0FB"/>
<path d="M126.197 55.5996C125.749 54.7117 125.222 53.8641 124.629 53.0649C124.531 52.9324 124.558 52.7448 124.689 52.6457C124.821 52.5466 125.007 52.5735 125.105 52.7062C125.718 53.5308 126.265 54.4071 126.73 55.3266C126.805 55.4748 126.747 55.656 126.599 55.7314C126.452 55.8067 126.272 55.748 126.197 55.5998L126.197 55.5996Z" fill="#BDD0FB"/>
<path d="M122.67 50.8154C121.96 50.1163 121.2 49.4691 120.4 48.8752C120.269 48.7781 120.241 48.5925 120.338 48.4606C120.434 48.3288 120.618 48.3004 120.75 48.3977C121.571 49.0063 122.353 49.6704 123.083 50.3891C123.2 50.5041 123.203 50.6929 123.088 50.8106C122.974 50.9284 122.787 50.9306 122.67 50.8156L122.67 50.8154Z" fill="#BDD0FB"/>
<path d="M117.894 47.2544C117.025 46.7669 116.127 46.3324 115.206 45.9508C115.058 45.8892 114.987 45.7176 115.048 45.5678C115.109 45.4178 115.279 45.3462 115.428 45.4079C116.369 45.7972 117.289 46.2404 118.179 46.7388C118.32 46.8179 118.371 46.9976 118.293 47.1401C118.214 47.2824 118.036 47.3338 117.894 47.2546L117.894 47.2544Z" fill="#BDD0FB"/>
<path d="M112.385 44.9634C111.43 44.6834 110.442 44.5018 109.472 44.2659L109.449 44.2604C109.29 44.2218 109.193 44.0609 109.231 43.9009C109.269 43.7411 109.429 43.6425 109.588 43.6813L109.589 43.6815C110.574 43.9243 111.566 44.119 112.545 44.402C112.699 44.4457 112.789 44.607 112.745 44.7622C112.702 44.9174 112.542 45.0079 112.388 44.9641L112.385 44.9634Z" fill="#BDD0FB"/>
<path d="M106.512 43.7797L103.526 43.4901L103.506 43.4881C103.334 43.4715 103.209 43.3176 103.225 43.1445C103.242 42.9715 103.394 42.8447 103.566 42.8613L103.568 42.8615L106.591 43.1719C106.759 43.189 106.88 43.3394 106.863 43.5078C106.846 43.6754 106.698 43.7978 106.531 43.7817L106.512 43.7797Z" fill="#BDD0FB"/>
<path d="M100.527 43.3866L97.527 43.4607L97.5083 43.4612C97.3264 43.4657 97.1755 43.3209 97.1709 43.1377C97.1664 42.9546 97.3102 42.8025 97.4919 42.798H97.4937L100.531 42.7398C100.709 42.7364 100.855 42.8782 100.858 43.0568C100.862 43.2346 100.722 43.3816 100.546 43.3861L100.527 43.3866Z" fill="#BDD0FB"/>
<path d="M94.5356 43.7051L91.5619 44.1133L91.5434 44.1158C91.3541 44.1419 91.1796 44.0081 91.1537 43.8174C91.1279 43.6267 91.2605 43.451 91.4498 43.4249L91.4518 43.4247L94.4644 43.0283C94.6493 43.004 94.8188 43.1353 94.8429 43.3215C94.867 43.507 94.7377 43.6772 94.5539 43.7026L94.5356 43.7051Z" fill="#BDD0FB"/>
<path d="M88.6141 44.6807L85.7006 45.4044L85.682 45.4091C85.4875 45.4575 85.2909 45.3376 85.2428 45.1417C85.1948 44.9459 85.3137 44.7478 85.5082 44.6994L85.5102 44.6991L88.4646 43.9826C88.6549 43.9366 88.8463 44.0544 88.8921 44.246C88.9378 44.4369 88.8215 44.6291 88.6325 44.676L88.6141 44.6807Z" fill="#BDD0FB"/>
<path d="M82.8295 46.2824L80.0107 47.3149L79.9912 47.3222C79.7942 47.3943 79.5765 47.292 79.5049 47.0934C79.4333 46.895 79.5348 46.6758 79.7318 46.6036L79.7338 46.6029L82.5967 45.5722C82.7896 45.5027 83.002 45.604 83.071 45.7983C83.1398 45.992 83.0401 46.2051 82.8485 46.2754L82.8295 46.2824Z" fill="#BDD0FB"/>
<path d="M77.254 48.5028L74.5713 49.848L74.5502 49.8587C74.3543 49.9568 74.1166 49.8766 74.0189 49.6793C73.9214 49.4819 74.0012 49.2425 74.1971 49.1443L74.199 49.1432L76.9306 47.7925C77.1228 47.6975 77.3552 47.7773 77.4495 47.9709C77.5435 48.1639 77.4651 48.3969 77.2744 48.4927L77.254 48.5028Z" fill="#BDD0FB"/>
<path d="M71.977 51.3536L69.4808 53.0173L69.4608 53.0307C69.2706 53.1575 69.0144 53.1048 68.8887 52.9134C68.7628 52.7218 68.815 52.4637 69.0052 52.337L69.0071 52.3357L71.5529 50.6593C71.74 50.5361 71.9905 50.5889 72.1128 50.7773C72.2346 50.965 72.183 51.2164 71.9976 51.3398L71.977 51.3536Z" fill="#BDD0FB"/>
<path d="M67.0782 54.8211L64.7655 56.7444L64.7501 56.7573C64.5671 56.9094 64.2962 56.8834 64.1452 56.6991C63.9941 56.5148 64.02 56.2421 64.203 56.0898L64.2048 56.0884L66.5591 54.1523C66.7392 54.0041 67.0046 54.0311 67.1518 54.2127C67.2984 54.3936 67.2723 54.6596 67.0938 54.8082L67.0782 54.8211Z" fill="#BDD0FB"/>
<path d="M62.5387 58.7713L60.3954 60.8875L60.3833 60.8995C60.2073 61.0734 59.9247 61.0706 59.752 60.8932C59.5795 60.7159 59.5822 60.4313 59.7584 60.2573L59.7601 60.2556L61.9397 58.1273C62.1134 57.9577 62.3907 57.9622 62.5591 58.137C62.7268 58.3114 62.7233 58.5893 62.5513 58.7591L62.5387 58.7713Z" fill="#BDD0FB"/>
<path d="M58.3298 63.0841L56.339 65.3509L56.3291 65.3623C56.16 65.555 55.8676 65.573 55.6762 65.4025C55.4849 65.232 55.467 64.9375 55.6363 64.7448L55.6379 64.743L57.6605 62.4643C57.8279 62.2757 58.1153 62.2595 58.3023 62.428C58.4888 62.5961 58.5055 62.8841 58.3399 63.0727L58.3298 63.0841Z" fill="#BDD0FB"/>
<path d="M54.4205 67.6802L52.572 70.0672L52.5634 70.078C52.4011 70.2879 52.1004 70.3252 51.8923 70.1616C51.6839 69.9979 51.6469 69.6952 51.8093 69.4854L51.8109 69.4834L53.6889 67.0843C53.8498 66.8788 54.1454 66.8436 54.3494 67.0055C54.5528 67.167 54.5882 67.4634 54.4292 67.6689L54.4205 67.6802Z" fill="#BDD0FB"/>
<path d="M50.7911 72.5067L49.0764 74.994L49.069 75.0049C48.9133 75.2306 48.6054 75.2865 48.3813 75.1297C48.1572 74.973 48.1017 74.663 48.2574 74.4373L48.2588 74.4351L50.0015 71.9353C50.1558 71.714 50.4591 71.6606 50.6787 71.816C50.8977 71.9708 50.9512 72.2747 50.7988 72.496L50.7911 72.5067Z" fill="#BDD0FB"/>
<path d="M47.4263 77.5262L45.841 80.0998L45.8342 80.1109C45.6859 80.3518 45.3715 80.426 45.1322 80.2764C44.893 80.1268 44.8193 79.8101 44.9678 79.5693L44.9693 79.5669L46.5815 76.98C46.7288 76.7435 47.0387 76.6721 47.2734 76.8207C47.5075 76.9685 47.5785 77.2791 47.4332 77.5151L47.4263 77.5262Z" fill="#BDD0FB"/>
<path d="M44.32 82.7126L42.8634 85.3627L42.8572 85.3742C42.7166 85.63 42.3968 85.7226 42.1427 85.5809C41.8887 85.4393 41.7969 85.117 41.9374 84.8613L41.9389 84.859L43.4217 82.1938C43.5616 81.9426 43.877 81.8531 44.1264 81.994C44.3749 82.1343 44.4641 82.4504 44.3264 82.7013L44.32 82.7126Z" fill="#BDD0FB"/>
<path d="M41.4724 88.0485L40.1484 90.7681L40.1424 90.7804C40.0108 91.0508 39.6864 91.1626 39.418 91.0301C39.1496 90.8974 39.0386 90.5708 39.1703 90.3003L39.1716 90.2978L40.5216 87.5606C40.6526 87.2949 40.9728 87.1863 41.2366 87.3185C41.4995 87.4501 41.6073 87.7708 41.4782 88.0362L41.4724 88.0485Z" fill="#BDD0FB"/>
<path d="M38.8939 93.5204L37.7118 96.3047L37.7059 96.3186C37.5848 96.6036 37.2574 96.7358 36.9745 96.614C36.6915 96.492 36.5603 96.1622 36.6812 95.8774L36.6823 95.8747L37.8907 93.0695C38.0114 92.7892 38.3349 92.6606 38.6131 92.7822C38.8904 92.9034 39.0182 93.2274 38.8994 93.507L38.8939 93.5204Z" fill="#BDD0FB"/>
<path d="M36.6058 99.1194L35.5813 101.964L35.5755 101.98C35.4677 102.28 35.139 102.435 34.8415 102.326C34.544 102.218 34.3903 101.887 34.4983 101.587L34.4993 101.584L35.5503 98.7126C35.6582 98.4178 35.983 98.2669 36.2757 98.3756C36.5675 98.484 36.7173 98.8094 36.6115 99.1035L36.6058 99.1194Z" fill="#BDD0FB"/>
<path d="M34.6447 104.838L33.8045 107.74L33.7987 107.76C33.7076 108.074 33.3808 108.255 33.0686 108.163C32.7564 108.072 32.5774 107.742 32.6683 107.428L32.6692 107.425L33.536 104.489C33.6273 104.179 33.9506 104.003 34.258 104.095C34.5646 104.186 34.7394 104.51 34.6502 104.819L34.6447 104.838Z" fill="#BDD0FB"/>
<path d="M33.0716 110.668L32.459 113.619L32.4548 113.64C32.3865 113.969 32.0667 114.18 31.7405 114.111C31.4141 114.042 31.2044 113.723 31.2727 113.394C31.4756 112.392 31.698 111.394 31.9098 110.394C31.9786 110.07 32.2954 109.863 32.6177 109.932C32.9398 110.001 33.1453 110.32 33.0765 110.645L33.0716 110.668Z" fill="#BDD0FB"/>
<path d="M31.9691 116.593L31.6179 119.584L31.6145 119.613C31.5757 119.943 31.2785 120.179 30.9509 120.14C30.6231 120.101 30.3887 119.803 30.4274 119.473L30.7795 116.423C30.8178 116.091 31.116 115.853 31.4454 115.892C31.7749 115.93 32.0109 116.231 31.9726 116.563L31.9724 116.564L31.9691 116.593Z" fill="#BDD0FB"/>
<path d="M31.4133 122.591L31.3633 125.602L31.3628 125.634C31.3573 125.963 31.0882 126.225 30.7614 126.22C30.4347 126.214 30.1743 125.944 30.1798 125.615L30.2248 122.541C30.2296 122.21 30.4998 121.946 30.8281 121.951C31.1564 121.956 31.4186 122.228 31.4139 122.558V122.56L31.4133 122.591Z" fill="#BDD0FB"/>
<path d="M31.4736 128.61L31.749 131.606L31.752 131.639C31.7818 131.963 31.5449 132.251 31.223 132.281C30.901 132.311 30.6158 132.073 30.586 131.749L30.2984 128.687C30.2679 128.361 30.5055 128.072 30.829 128.041C31.1528 128.011 31.4398 128.25 31.4704 128.576L31.4706 128.577L31.4736 128.61Z" fill="#BDD0FB"/>
<path d="M32.1922 134.581L32.8037 137.524L32.8104 137.557C32.876 137.872 32.6751 138.182 32.3619 138.248C32.0486 138.314 31.7417 138.113 31.6761 137.797L31.0452 134.789C30.9787 134.472 31.1799 134.161 31.4948 134.094C31.8096 134.027 32.1186 134.23 32.1853 134.547L32.1855 134.548L32.1922 134.581Z" fill="#BDD0FB"/>
<path d="M33.5816 140.426L34.5239 143.28L34.5342 143.311C34.6342 143.614 34.4714 143.941 34.1708 144.042C33.8703 144.143 33.5458 143.98 33.4458 143.677L32.4773 140.761C32.3763 140.457 32.5392 140.128 32.8413 140.026C33.1432 139.924 33.47 140.089 33.5712 140.393L33.5715 140.394L33.5816 140.426Z" fill="#BDD0FB"/>
<path d="M35.6243 146.078L36.8758 148.812L36.8885 148.84C37.0197 149.126 36.8955 149.466 36.6107 149.598C36.326 149.731 35.9894 149.606 35.858 149.319L34.5753 146.532C34.4429 146.244 34.5672 145.902 34.8531 145.769C35.1391 145.635 35.4783 145.761 35.6109 146.049L35.6114 146.05L35.6243 146.078Z" fill="#BDD0FB"/>
<path d="M38.2698 151.476L39.7973 154.067L39.8115 154.091C39.97 154.36 39.882 154.707 39.6152 154.866C39.3486 155.026 39.0045 154.939 38.846 154.67L37.2846 152.034C37.1249 151.764 37.2125 151.415 37.4802 151.254C37.7481 151.093 38.0947 151.181 38.2546 151.451L38.2551 151.452L38.2698 151.476Z" fill="#BDD0FB"/>
<path d="M41.4484 156.581L43.2136 159.018L43.2281 159.038C43.4091 159.288 43.3547 159.638 43.1069 159.82C42.859 160.002 42.5119 159.948 42.3309 159.699L40.5315 157.225C40.349 156.974 40.4029 156.622 40.6518 156.438C40.9007 156.255 41.2505 156.309 41.433 156.56L41.4337 156.561L41.4484 156.581Z" fill="#BDD0FB"/>
<path d="M45.0831 161.376L47.0478 163.656L47.0618 163.673C47.2609 163.904 47.2362 164.253 47.0068 164.454C46.7774 164.655 46.4308 164.631 46.2319 164.4L44.2341 162.09C44.0336 161.858 44.0577 161.506 44.2878 161.304C44.5179 161.102 44.8672 161.126 45.0679 161.358L45.0686 161.359L45.0831 161.376Z" fill="#BDD0FB"/>
<path d="M49.0988 165.86L51.2264 167.988L51.2397 168.001C51.4528 168.215 51.454 168.561 51.2423 168.776C51.0307 168.991 50.6871 168.993 50.474 168.78L48.3154 166.629C48.1007 166.415 48.0987 166.066 48.3111 165.85C48.5235 165.634 48.8697 165.632 49.0846 165.846L49.0853 165.846L49.0988 165.86Z" fill="#BDD0FB"/>
<path d="M53.4253 170.045L55.6885 172.032L55.7008 172.042C55.9247 172.239 55.9481 172.581 55.7529 172.807C55.5577 173.032 55.2187 173.057 54.9948 172.86L52.7029 170.856C52.4772 170.659 52.4531 170.315 52.649 170.088C52.8447 169.86 53.1865 169.836 53.412 170.033L53.4127 170.034L53.4253 170.045Z" fill="#BDD0FB"/>
<path d="M58.0102 173.952L60.3842 175.808L60.3952 175.816C60.6273 175.998 60.6695 176.334 60.4894 176.568C60.3092 176.802 59.976 176.845 59.7437 176.664L57.3434 174.795C57.1096 174.613 57.0667 174.274 57.2474 174.039C57.428 173.803 57.764 173.76 57.9978 173.942L57.9987 173.943L58.0102 173.952Z" fill="#BDD0FB"/>
<path d="M62.806 177.602L65.2706 179.338L65.2805 179.345C65.5186 179.513 65.5766 179.843 65.4101 180.083C65.2436 180.323 64.9165 180.382 64.6784 180.214L62.1901 178.469C61.9504 178.301 61.8912 177.969 62.0582 177.727C62.2252 177.486 62.5547 177.426 62.7946 177.595L62.7955 177.595L62.806 177.602Z" fill="#BDD0FB"/>
<path d="M67.7753 181.029L70.2951 182.706C70.5353 182.864 70.6023 183.189 70.4449 183.431C70.2874 183.673 69.9643 183.74 69.724 183.582L67.1975 181.907C66.9563 181.747 66.8894 181.42 67.0483 181.177C67.2071 180.934 67.5314 180.867 67.7727 181.027L67.7753 181.029Z" fill="#BDD0FB"/>
<path d="M72.8203 184.375L75.3486 186.039C75.5863 186.196 75.6535 186.516 75.4984 186.756C75.3434 186.996 75.0252 187.063 74.7873 186.907L72.2546 185.247C72.0152 185.091 71.9473 184.768 72.1032 184.527C72.2588 184.286 72.5792 184.217 72.8187 184.374L72.8203 184.375Z" fill="#BDD0FB"/>
<path d="M77.8778 187.702L80.4055 189.367C80.6404 189.521 80.7064 189.839 80.5527 190.075C80.3992 190.312 80.0843 190.378 79.8494 190.223L77.3197 188.564C77.083 188.41 77.0157 188.091 77.1694 187.852C77.3231 187.614 77.6397 187.546 77.8764 187.701L77.8778 187.702Z" fill="#BDD0FB"/>
<path d="M82.9294 191.037L85.4474 192.718C85.6785 192.872 85.7418 193.186 85.5887 193.418C85.4355 193.651 85.1227 193.714 84.8916 193.56L82.3739 191.887C82.1405 191.734 82.0749 191.418 82.2275 191.183C82.3802 190.948 82.6932 190.882 82.9267 191.036L82.9294 191.037Z" fill="#BDD0FB"/>
<path d="M87.957 194.411L90.4558 196.12C90.6825 196.275 90.7414 196.586 90.5875 196.814C90.4336 197.043 90.125 197.102 89.8982 196.947L89.8959 196.945L87.3998 195.245L87.3969 195.243C87.1686 195.088 87.1087 194.775 87.2631 194.545C87.4175 194.315 87.7277 194.255 87.9561 194.41L87.957 194.411Z" fill="#BDD0FB"/>
<path d="M92.9439 197.851L95.4165 199.606C95.6377 199.763 95.6909 200.071 95.5349 200.294C95.3791 200.517 95.0732 200.57 94.8518 200.413L94.8485 200.411L92.3803 198.667L92.3764 198.664C92.1534 198.507 92.0995 198.197 92.2558 197.972C92.4122 197.748 92.7198 197.693 92.9428 197.851L92.9439 197.851Z" fill="#BDD0FB"/>
<path d="M97.8687 201.385L100.3 203.195C100.515 203.355 100.561 203.66 100.402 203.877C100.243 204.094 99.9397 204.14 99.7247 203.979L99.7204 203.976L97.2953 202.179L97.2904 202.175C97.0737 202.014 97.0273 201.707 97.1867 201.489C97.3462 201.271 97.6512 201.224 97.8678 201.385L97.8687 201.385Z" fill="#BDD0FB"/>
<path d="M102.709 205.038L105.092 206.918C105.3 207.083 105.336 207.385 105.173 207.595C105.011 207.804 104.71 207.841 104.502 207.677L104.497 207.673L102.122 205.807L102.116 205.802C101.907 205.637 101.869 205.333 102.033 205.122C102.196 204.911 102.499 204.873 102.708 205.038L102.709 205.038Z" fill="#BDD0FB"/>
<path d="M107.449 208.827L109.784 210.76C109.985 210.927 110.014 211.227 109.849 211.43C109.683 211.633 109.385 211.662 109.184 211.495L109.18 211.492L106.85 209.571L106.846 209.567C106.643 209.4 106.613 209.098 106.779 208.893C106.945 208.689 107.245 208.659 107.448 208.826L107.449 208.827Z" fill="#BDD0FB"/>
<path d="M112.096 212.727L114.378 214.731C114.572 214.902 114.593 215.198 114.423 215.394C114.254 215.59 113.959 215.61 113.765 215.439L113.76 215.435L111.486 213.446L111.48 213.44C111.284 213.269 111.263 212.971 111.433 212.774C111.603 212.576 111.899 212.555 112.095 212.727L112.096 212.727Z" fill="#BDD0FB"/>
<path d="M116.625 216.777L118.829 218.871C119.015 219.046 119.023 219.34 118.849 219.526C118.674 219.712 118.383 219.721 118.198 219.546L118.191 219.539L115.997 217.464L115.99 217.457C115.803 217.281 115.794 216.985 115.969 216.798C116.144 216.61 116.438 216.6 116.624 216.777L116.625 216.777Z" fill="#BDD0FB"/>
<path d="M120.986 221.016L123.087 223.219C123.26 223.402 123.255 223.691 123.074 223.866C122.893 224.042 122.605 224.036 122.431 223.853L122.423 223.845L120.336 221.664L120.327 221.655C120.152 221.472 120.157 221.18 120.339 221.004C120.52 220.827 120.81 220.833 120.985 221.016L120.986 221.016Z" fill="#BDD0FB"/>
<path d="M125.123 225.484L127.087 227.815C127.247 228.005 127.224 228.29 127.035 228.451C126.846 228.613 126.563 228.59 126.403 228.399L126.394 228.388L124.445 226.084L124.436 226.073C124.274 225.882 124.297 225.595 124.486 225.432C124.676 225.269 124.961 225.292 125.123 225.483L125.123 225.484Z" fill="#BDD0FB"/>
<path d="M128.967 230.216L130.753 232.691C130.897 232.89 130.853 233.169 130.656 233.313C130.458 233.458 130.182 233.414 130.038 233.215L130.028 233.201L128.258 230.759L128.248 230.744C128.103 230.544 128.146 230.264 128.345 230.118C128.543 229.971 128.822 230.015 128.967 230.215L128.967 230.216Z" fill="#BDD0FB"/>
<path d="M132.433 235.243L133.993 237.871C134.117 238.079 134.05 238.349 133.843 238.473C133.636 238.598 133.368 238.53 133.244 238.322L133.234 238.304L131.69 235.716L131.679 235.698C131.554 235.488 131.622 235.216 131.83 235.091C132.038 234.965 132.308 235.033 132.433 235.242L132.433 235.243Z" fill="#BDD0FB"/>
<path d="M135.421 240.575L136.697 243.356C136.796 243.571 136.703 243.825 136.489 243.924C136.277 244.023 136.025 243.931 135.926 243.718L135.916 243.696L134.645 240.965L134.635 240.944C134.533 240.725 134.627 240.465 134.843 240.363C135.06 240.261 135.318 240.355 135.42 240.573L135.421 240.575Z" fill="#BDD0FB"/>
<path d="M137.814 246.206L138.758 249.119C138.828 249.335 138.711 249.568 138.497 249.638C138.283 249.709 138.054 249.592 137.983 249.377L137.975 249.353L137.03 246.493L137.022 246.469C136.949 246.249 137.067 246.011 137.286 245.938C137.504 245.865 137.74 245.984 137.813 246.204L137.814 246.206Z" fill="#BDD0FB"/>
<path d="M139.522 252.087L140.096 255.098C140.137 255.312 139.998 255.519 139.785 255.56C139.573 255.601 139.369 255.462 139.327 255.249L139.322 255.224L138.741 252.266L138.736 252.241C138.693 252.023 138.834 251.811 139.051 251.768C139.268 251.724 139.478 251.866 139.521 252.085L139.522 252.087Z" fill="#BDD0FB"/>
<path d="M140.477 258.14L140.664 261.201C140.677 261.409 140.519 261.589 140.312 261.601C140.106 261.614 139.929 261.457 139.915 261.25L139.914 261.226L139.713 258.214L139.711 258.19C139.697 257.977 139.857 257.793 140.069 257.778C140.28 257.764 140.463 257.925 140.477 258.138L140.477 258.14Z" fill="#BDD0FB"/>
<path d="M140.643 264.268L140.422 267.318C140.407 267.517 140.236 267.666 140.038 267.652C139.841 267.637 139.693 267.466 139.706 267.268L139.708 267.249L139.909 264.237L139.911 264.216C139.925 264.013 140.1 263.859 140.302 263.872C140.504 263.886 140.657 264.062 140.643 264.266L140.643 264.268Z" fill="#BDD0FB"/>
<path d="M140.057 270.355L139.563 273.371C139.532 273.559 139.356 273.686 139.17 273.655C138.984 273.624 138.859 273.448 138.888 273.261L138.89 273.246L139.363 270.257L139.365 270.242C139.396 270.05 139.575 269.919 139.766 269.949C139.958 269.98 140.088 270.161 140.057 270.353L140.057 270.355Z" fill="#BDD0FB"/>
<path d="M138.937 276.363L138.166 279.322C138.12 279.497 137.942 279.601 137.769 279.555C137.596 279.51 137.492 279.332 137.536 279.157L137.541 279.14L138.287 276.211L138.291 276.194C138.337 276.015 138.519 275.906 138.697 275.953C138.876 275.999 138.983 276.182 138.937 276.361L138.937 276.363Z" fill="#BDD0FB"/>
<path d="M137.227 282.234L136.083 285.076C136.019 285.235 135.839 285.312 135.682 285.247C135.524 285.183 135.448 285.003 135.511 284.845L135.521 284.821L136.63 282.019L136.639 281.996C136.704 281.832 136.888 281.752 137.051 281.818C137.213 281.883 137.292 282.069 137.228 282.232L137.227 282.234Z" fill="#BDD0FB"/>
<path d="M134.68 287.807C134.161 288.69 133.587 289.545 132.939 290.344C132.837 290.47 132.653 290.489 132.528 290.386C132.404 290.284 132.385 290.099 132.486 289.973C133.107 289.198 133.661 288.365 134.163 287.5C134.246 287.356 134.43 287.307 134.573 287.391C134.717 287.475 134.765 287.661 134.681 287.805L134.68 287.807Z" fill="#BDD0FB"/>
<path d="M130.755 292.531C129.943 293.172 129.039 293.708 128.064 294.073C127.921 294.126 127.763 294.053 127.71 293.91C127.657 293.767 127.729 293.608 127.87 293.554C128.784 293.206 129.635 292.697 130.404 292.082C130.527 291.984 130.705 292.005 130.802 292.128C130.9 292.252 130.879 292.431 130.757 292.53L130.755 292.531Z" fill="#BDD0FB"/>
<path d="M92.7979 481.802C92.7979 481.802 91.6473 488.017 91.0537 494.174C90.8217 496.58 92.6452 498.689 95.0423 498.813C103.186 499.233 120.607 500.065 126.863 499.844C127.803 499.811 128.427 498.847 128.087 497.963C127.803 497.222 127.246 496.62 126.533 496.282L97.8732 482.679L92.7979 481.802Z" fill="url(#paint38_linear_180133_38404)"/>
<path d="M91.9382 478.136L92.7447 485.59C92.7447 485.59 97.7649 488.003 101.234 485.374L99.2243 477.056L91.9382 478.136Z" fill="url(#paint39_linear_180133_38404)"/>
<path d="M93.9235 338.155C93.5264 340.096 90.971 435.17 100.658 477.88C100.817 478.577 100.46 479.29 99.8003 479.554C98.2464 480.176 95.2035 481.07 91.566 481.158C90.4395 481.185 89.4368 480.438 89.1294 479.346C86.3386 469.432 72.9855 419.763 71.6307 372.425C70.1167 319.529 71.6477 370.624 71.6477 370.624L73.1388 337.951L93.9235 338.155Z" fill="url(#paint40_linear_180133_38404)"/>
<path d="M59.6537 484.731C59.6537 484.731 57.8862 487.857 56.1247 496.192C55.8066 497.697 56.8391 499.151 58.3581 499.316C61.0459 499.608 65.1839 499.991 68.5016 500C70.0309 500.004 71.237 498.674 71.0673 497.143C70.7287 494.091 69.6313 489.079 66.1319 485.148L59.6537 484.731Z" fill="url(#paint41_linear_180133_38404)"/>
<path d="M58.2181 475.14L60.1608 486.42C60.1608 486.42 62.1728 487.957 66.1919 486.895L65.3283 474.771L58.2181 475.14Z" fill="url(#paint42_linear_180133_38404)"/>
<path d="M53.9544 340.689C45.226 390.78 54.5701 464.706 57.8207 479.189C58.0196 480.076 58.7221 480.76 59.6109 480.917C61.1205 481.184 63.6078 481.414 66.0688 480.72C66.9166 480.481 67.518 479.718 67.5609 478.832C68.126 467.154 67.9874 395.426 75.9459 367.156C76.3492 365.724 77.2319 364.479 78.4451 363.628L93.4723 353.083L94.7803 335.818L53.9544 340.689Z" fill="url(#paint43_linear_180133_38404)"/>
<path d="M107.445 246.131C82.7153 245.482 55.359 252.173 55.359 252.173C47.5761 295.432 53.1861 345.469 53.1861 345.469C72.286 350.711 93.9632 342.768 93.9632 342.768C97.3172 324.688 112.649 273.86 112.649 273.86C124.748 272.465 134.736 269.049 142.978 264.485C136.794 257.123 133.934 247.805 132.706 242.301C123.935 244.954 115.072 246.331 107.445 246.131Z" fill="url(#paint44_linear_180133_38404)"/>
<path d="M180.85 210.138C178.449 207.158 175.361 208.527 175.361 208.527C171.574 223.978 152.371 236.352 132.706 242.301C133.934 247.805 136.794 257.124 142.979 264.485C175.692 246.369 180.85 210.138 180.85 210.138Z" fill="url(#paint45_linear_180133_38404)"/>
<path d="M180.254 210.884C180.5 211.7 177.544 212.911 175.842 209.565C175.797 207.969 174.898 201.124 175.857 199.833C180.965 192.958 190.822 184.373 190.822 184.373C192.458 186.03 191.082 187.63 191.082 187.63L186.293 192.56C187.268 194.375 188.463 195.911 189.009 198.1C189.423 199.758 189.144 201.523 188.3 203.02C187.453 204.522 186.299 206.475 185.211 208.001C183.151 210.89 180.254 210.884 180.254 210.884Z" fill="url(#paint46_linear_180133_38404)"/>
<path d="M184.188 195.769L179.832 199.417L178.441 203.077L182.253 207.419C182.253 207.419 183.617 200.143 184.595 198.574C185.573 197.006 185.08 196.239 184.188 195.769Z" fill="url(#paint47_linear_180133_38404)"/>
<path d="M64.6173 276.386L55.3591 252.172C55.3591 252.172 32.1068 267.761 28.1177 287.771C32.4798 288.137 40.4122 289.357 48.1498 293.386C49.948 283.937 64.6173 276.386 64.6173 276.386Z" fill="url(#paint48_linear_180133_38404)"/>
<path d="M84.5911 299.28C84.5911 299.28 58.5131 313.796 49.8805 301.104C48.0884 298.468 47.6785 295.862 48.1497 293.386C40.4121 289.357 32.4798 288.137 28.1176 287.771C26.9149 293.804 27.4595 300.237 30.9236 306.767C45.9867 335.162 87.9627 305.754 87.9627 305.754L84.5911 299.28Z" fill="url(#paint49_linear_180133_38404)"/>
<path d="M82.5834 225.665L74.4964 248.513C74.3626 248.892 74.5134 249.314 74.8607 249.512C76.9947 250.727 84.6907 254.254 94.061 248.396C95.0372 247.785 95.7073 246.781 95.8654 245.635L98.6018 225.819L82.5834 225.665Z" fill="url(#paint50_linear_180133_38404)"/>
<path d="M99.908 204.601C99.908 204.601 108.395 221.069 107.224 227.678C106.054 234.286 95.3483 233.708 86.0467 228.242L79.679 210.487L99.908 204.601Z" fill="url(#paint51_linear_180133_38404)"/>
<path d="M86.5423 219.558C86.924 219.392 87.0687 218.924 86.8444 218.572C86.162 217.5 84.8849 215.314 84.4887 213.407C84.4887 213.407 82.9447 212.39 88.4648 211.115C93.9851 209.84 102.218 207.858 103.989 203.153C105.716 198.565 101.403 186.945 94.2601 196.102C93.9883 196.451 93.4625 196.453 93.1976 196.099C92.0555 194.572 89.0443 191.395 84.8044 193.262C80.8368 195.01 80.3641 197.922 80.4044 199.392C80.4162 199.825 80.0292 200.157 79.6082 200.072C77.6144 199.669 72.824 199.294 70.5397 204.225C68.6584 208.287 69.8343 210.608 70.9143 211.748C71.2643 212.117 71.1037 212.718 70.6175 212.863C69.3008 213.255 67.5952 214.36 67.7354 217.46C67.9295 221.745 72.687 221.413 74.0423 221.231C74.2643 221.201 74.4871 221.28 74.6357 221.449C75.784 222.753 80.9607 228.296 86.6138 229.013C87.1033 229.075 87.4878 228.591 87.3316 228.12L84.9503 220.925C84.8397 220.591 85.0014 220.227 85.3223 220.088L86.5423 219.558Z" fill="url(#paint52_linear_180133_38404)"/>
<path d="M87.5171 220.585C87.5171 220.585 81.4043 216.273 80.9207 219.85C80.4374 223.426 86.4125 225.09 89.3923 223.783L87.5171 220.585Z" fill="url(#paint53_linear_180133_38404)"/>
<path d="M79.2615 322.22L93.4672 272.251C93.6285 271.683 94.1089 271.27 94.6908 271.201C97.2646 270.899 104.723 270.049 113.334 269.316C123.706 268.432 135.751 267.716 142.949 268.325C143.972 268.412 144.591 269.502 144.136 270.429C140.043 278.77 123.206 312.7 114.775 323.814C114.495 324.183 114.063 324.398 113.603 324.394L80.6436 324.085C79.6843 324.076 78.9975 323.149 79.2615 322.22Z" fill="url(#paint54_linear_180133_38404)"/>
<path d="M82.6938 310.148C82.6938 310.148 80.7148 301.952 81.5131 299.044C82.3114 296.136 83.8581 292.397 89.013 293.228C94.1682 294.059 100.249 296.246 100.249 296.246C100.249 296.246 99.9419 300.034 96.0239 298.812L98.4536 300.705C98.4536 300.705 98.1063 303.738 94.7969 302.118L97.0566 304.629C97.0566 304.629 95.6353 307.12 93.2004 305.522C90.7658 303.925 89.5985 311.135 82.6938 310.148Z" fill="url(#paint55_linear_180133_38404)"/>
<path d="M112.387 284.233C112.387 286.553 114.254 288.433 116.557 288.433C118.86 288.433 120.727 286.553 120.727 284.233C120.727 281.913 118.86 280.033 116.557 280.033C114.254 280.033 112.387 281.913 112.387 284.233Z" fill="#91B3FA"/>
<path d="M95.0748 287.002L97.967 277.119C98.3218 275.906 99.2906 274.995 100.495 274.741C109.56 272.836 134.372 272.432 134.622 272.428L134.605 271.312C133.582 271.327 109.437 271.722 100.268 273.648C98.6639 273.986 97.3746 275.195 96.9033 276.803L94.0111 286.686L95.0748 287.002Z" fill="#91B3FA"/>
<defs>
<linearGradient id="paint0_linear_180133_38404" x1="534.441" y1="492.939" x2="173.098" y2="179.041" gradientUnits="userSpaceOnUse">
<stop stop-color="#DAE3FE"/>
<stop offset="1" stop-color="#E9EFFD"/>
</linearGradient>
<linearGradient id="paint1_linear_180133_38404" x1="306.634" y1="393.341" x2="159.981" y2="508.191" gradientUnits="userSpaceOnUse">
<stop stop-color="#09005D"/>
<stop offset="1" stop-color="#1A0F91"/>
</linearGradient>
<linearGradient id="paint2_linear_180133_38404" x1="237.043" y1="56.2499" x2="253.585" y2="368.295" gradientUnits="userSpaceOnUse">
<stop stop-color="#09005D"/>
<stop offset="1" stop-color="#1A0F91"/>
</linearGradient>
<linearGradient id="paint3_linear_180133_38404" x1="257.733" y1="75.0731" x2="259.571" y2="369.793" gradientUnits="userSpaceOnUse">
<stop stop-color="#09005D"/>
<stop offset="1" stop-color="#1A0F91"/>
</linearGradient>
<linearGradient id="paint4_linear_180133_38404" x1="103.816" y1="-44.8089" x2="47.7705" y2="332.828" gradientUnits="userSpaceOnUse">
<stop stop-color="#FF928E"/>
<stop offset="1" stop-color="#FE7062"/>
</linearGradient>
<linearGradient id="paint5_linear_180133_38404" x1="141.517" y1="-39.2141" x2="85.4709" y2="338.423" gradientUnits="userSpaceOnUse">
<stop stop-color="#FF928E"/>
<stop offset="1" stop-color="#FE7062"/>
</linearGradient>
<linearGradient id="paint6_linear_180133_38404" x1="171.52" y1="-34.7609" x2="115.474" y2="342.875" gradientUnits="userSpaceOnUse">
<stop stop-color="#FF928E"/>
<stop offset="1" stop-color="#FE7062"/>
</linearGradient>
<linearGradient id="paint7_linear_180133_38404" x1="214.383" y1="-28.3983" x2="158.337" y2="349.239" gradientUnits="userSpaceOnUse">
<stop stop-color="#FF928E"/>
<stop offset="1" stop-color="#FE7062"/>
</linearGradient>
<linearGradient id="paint8_linear_180133_38404" x1="243.784" y1="-24.0359" x2="187.739" y2="353.601" gradientUnits="userSpaceOnUse">
<stop stop-color="#FF928E"/>
<stop offset="1" stop-color="#FE7062"/>
</linearGradient>
<linearGradient id="paint9_linear_180133_38404" x1="280.724" y1="-18.5536" x2="224.678" y2="359.083" gradientUnits="userSpaceOnUse">
<stop stop-color="#FF928E"/>
<stop offset="1" stop-color="#FE7062"/>
</linearGradient>
<linearGradient id="paint10_linear_180133_38404" x1="317.791" y1="-13.0528" x2="261.745" y2="364.584" gradientUnits="userSpaceOnUse">
<stop stop-color="#FF928E"/>
<stop offset="1" stop-color="#FE7062"/>
</linearGradient>
<linearGradient id="paint11_linear_180133_38404" x1="350.259" y1="-8.2351" x2="294.213" y2="369.402" gradientUnits="userSpaceOnUse">
<stop stop-color="#FF928E"/>
<stop offset="1" stop-color="#FE7062"/>
</linearGradient>
<linearGradient id="paint12_linear_180133_38404" x1="394.505" y1="-1.6684" x2="338.459" y2="375.967" gradientUnits="userSpaceOnUse">
<stop stop-color="#FF928E"/>
<stop offset="1" stop-color="#FE7062"/>
</linearGradient>
<linearGradient id="paint13_linear_180133_38404" x1="425.875" y1="2.98831" x2="369.829" y2="380.625" gradientUnits="userSpaceOnUse">
<stop stop-color="#FF928E"/>
<stop offset="1" stop-color="#FE7062"/>
</linearGradient>
<linearGradient id="paint14_linear_180133_38404" x1="417.611" y1="-118.483" x2="433.541" y2="273.272" gradientUnits="userSpaceOnUse">
<stop stop-color="#FF928E"/>
<stop offset="1" stop-color="#FE7062"/>
</linearGradient>
<linearGradient id="paint15_linear_180133_38404" x1="346.093" y1="354.549" x2="397.72" y2="354.549" gradientUnits="userSpaceOnUse">
<stop stop-color="#09005D"/>
<stop offset="1" stop-color="#1A0F91"/>
</linearGradient>
<linearGradient id="paint16_linear_180133_38404" x1="394.812" y1="386.776" x2="552.047" y2="182.572" gradientUnits="userSpaceOnUse">
<stop stop-color="#4F52FF"/>
<stop offset="1" stop-color="#4042E2"/>
</linearGradient>
<linearGradient id="paint17_linear_180133_38404" x1="307.327" y1="507.564" x2="403.953" y2="428.269" gradientUnits="userSpaceOnUse">
<stop stop-color="#4F52FF"/>
<stop offset="1" stop-color="#4042E2"/>
</linearGradient>
<linearGradient id="paint18_linear_180133_38404" x1="401.211" y1="201.685" x2="384.071" y2="265.498" gradientUnits="userSpaceOnUse">
<stop stop-color="#09005D"/>
<stop offset="1" stop-color="#1A0F91"/>
</linearGradient>
<linearGradient id="paint19_linear_180133_38404" x1="137.284" y1="82.3661" x2="262.235" y2="195.336" gradientUnits="userSpaceOnUse">
<stop stop-color="#4F52FF"/>
<stop offset="1" stop-color="#4042E2"/>
</linearGradient>
<linearGradient id="paint20_linear_180133_38404" x1="186.154" y1="93.5094" x2="169.958" y2="184.741" gradientUnits="userSpaceOnUse">
<stop stop-color="#FF928E"/>
<stop offset="1" stop-color="#FE7062"/>
</linearGradient>
<linearGradient id="paint21_linear_180133_38404" x1="179.831" y1="73.9108" x2="163.635" y2="165.143" gradientUnits="userSpaceOnUse">
<stop stop-color="#FF928E"/>
<stop offset="1" stop-color="#FE7062"/>
</linearGradient>
<linearGradient id="paint22_linear_180133_38404" x1="195.875" y1="95.2344" x2="179.678" y2="186.467" gradientUnits="userSpaceOnUse">
<stop stop-color="#FF928E"/>
<stop offset="1" stop-color="#FE7062"/>
</linearGradient>
<linearGradient id="paint23_linear_180133_38404" x1="208.331" y1="110.77" x2="180.285" y2="212.702" gradientUnits="userSpaceOnUse">
<stop stop-color="#FF928E"/>
<stop offset="1" stop-color="#FE7062"/>
</linearGradient>
<linearGradient id="paint24_linear_180133_38404" x1="213.21" y1="98.434" x2="197.014" y2="189.666" gradientUnits="userSpaceOnUse">
<stop stop-color="#FF928E"/>
<stop offset="1" stop-color="#FE7062"/>
</linearGradient>
<linearGradient id="paint25_linear_180133_38404" x1="198.73" y1="55.8291" x2="154.967" y2="96.5754" gradientUnits="userSpaceOnUse">
<stop stop-color="#09005D"/>
<stop offset="1" stop-color="#1A0F91"/>
</linearGradient>
<linearGradient id="paint26_linear_180133_38404" x1="194.909" y1="51.4755" x2="174.902" y2="110.075" gradientUnits="userSpaceOnUse">
<stop stop-color="#09005D"/>
<stop offset="1" stop-color="#1A0F91"/>
</linearGradient>
<linearGradient id="paint27_linear_180133_38404" x1="191.412" y1="55.837" x2="181.894" y2="109.122" gradientUnits="userSpaceOnUse">
<stop stop-color="#09005D"/>
<stop offset="1" stop-color="#1A0F91"/>
</linearGradient>
<linearGradient id="paint28_linear_180133_38404" x1="314.128" y1="49.3106" x2="284.393" y2="43.6084" gradientUnits="userSpaceOnUse">
<stop stop-color="#FF928E"/>
<stop offset="1" stop-color="#FE7062"/>
</linearGradient>
<linearGradient id="paint29_linear_180133_38404" x1="293.286" y1="61.7469" x2="325.069" y2="61.7469" gradientUnits="userSpaceOnUse">
<stop stop-color="#4F52FF"/>
<stop offset="1" stop-color="#4042E2"/>
</linearGradient>
<linearGradient id="paint30_linear_180133_38404" x1="301.383" y1="63.6871" x2="323.829" y2="63.6871" gradientUnits="userSpaceOnUse">
<stop stop-color="#DAE3FE"/>
<stop offset="1" stop-color="#E9EFFD"/>
</linearGradient>
<linearGradient id="paint31_linear_180133_38404" x1="293.844" y1="29.5898" x2="325.365" y2="29.5898" gradientUnits="userSpaceOnUse">
<stop stop-color="#4F52FF"/>
<stop offset="1" stop-color="#4042E2"/>
</linearGradient>
<linearGradient id="paint32_linear_180133_38404" x1="301.924" y1="27.8375" x2="324.187" y2="27.8375" gradientUnits="userSpaceOnUse">
<stop stop-color="#DAE3FE"/>
<stop offset="1" stop-color="#E9EFFD"/>
</linearGradient>
<linearGradient id="paint33_linear_180133_38404" x1="372.558" y1="37.8687" x2="338.84" y2="60.3743" gradientUnits="userSpaceOnUse">
<stop stop-color="#FF928E"/>
<stop offset="1" stop-color="#FE7062"/>
</linearGradient>
<linearGradient id="paint34_linear_180133_38404" x1="349.373" y1="53.0833" x2="338.133" y2="39.1322" gradientUnits="userSpaceOnUse">
<stop stop-color="#4F52FF"/>
<stop offset="1" stop-color="#4042E2"/>
</linearGradient>
<linearGradient id="paint35_linear_180133_38404" x1="354.136" y1="-27.3784" x2="350.053" y2="1.81336" gradientUnits="userSpaceOnUse">
<stop stop-color="#09005D"/>
<stop offset="1" stop-color="#1A0F91"/>
</linearGradient>
<linearGradient id="paint36_linear_180133_38404" x1="330.322" y1="50.4794" x2="322.897" y2="41.2628" gradientUnits="userSpaceOnUse">
<stop stop-color="#4F52FF"/>
<stop offset="1" stop-color="#4042E2"/>
</linearGradient>
<linearGradient id="paint37_linear_180133_38404" x1="336.377" y1="19.5823" x2="329.444" y2="38.2051" gradientUnits="userSpaceOnUse">
<stop stop-color="#09005D"/>
<stop offset="1" stop-color="#1A0F91"/>
</linearGradient>
<linearGradient id="paint38_linear_180133_38404" x1="126.199" y1="473.519" x2="18.88" y2="587.224" gradientUnits="userSpaceOnUse">
<stop stop-color="#09005D"/>
<stop offset="1" stop-color="#1A0F91"/>
</linearGradient>
<linearGradient id="paint39_linear_180133_38404" x1="91.904" y1="481.768" x2="101.267" y2="481.856" gradientUnits="userSpaceOnUse">
<stop stop-color="#FEBBBA"/>
<stop offset="1" stop-color="#FF928E"/>
</linearGradient>
<linearGradient id="paint40_linear_180133_38404" x1="82.9773" y1="321.829" x2="87.8791" y2="478.776" gradientUnits="userSpaceOnUse">
<stop stop-color="#09005D"/>
<stop offset="1" stop-color="#1A0F91"/>
</linearGradient>
<linearGradient id="paint41_linear_180133_38404" x1="102.759" y1="451.391" x2="-4.5646" y2="565.101" gradientUnits="userSpaceOnUse">
<stop stop-color="#09005D"/>
<stop offset="1" stop-color="#1A0F91"/>
</linearGradient>
<linearGradient id="paint42_linear_180133_38404" x1="58.1632" y1="480.96" x2="66.2471" y2="481.036" gradientUnits="userSpaceOnUse">
<stop stop-color="#FEBBBA"/>
<stop offset="1" stop-color="#FF928E"/>
</linearGradient>
<linearGradient id="paint43_linear_180133_38404" x1="71.18" y1="322.198" x2="76.0818" y2="479.145" gradientUnits="userSpaceOnUse">
<stop stop-color="#09005D"/>
<stop offset="1" stop-color="#1A0F91"/>
</linearGradient>
<linearGradient id="paint44_linear_180133_38404" x1="82.0506" y1="242.807" x2="138.233" y2="457.551" gradientUnits="userSpaceOnUse">
<stop stop-color="#4F52FF"/>
<stop offset="1" stop-color="#4042E2"/>
</linearGradient>
<linearGradient id="paint45_linear_180133_38404" x1="132.765" y1="236.088" x2="180.602" y2="236.539" gradientUnits="userSpaceOnUse">
<stop stop-color="#FEBBBA"/>
<stop offset="1" stop-color="#FF928E"/>
</linearGradient>
<linearGradient id="paint46_linear_180133_38404" x1="136.498" y1="255.211" x2="194.348" y2="188.708" gradientUnits="userSpaceOnUse">
<stop stop-color="#FEBBBA"/>
<stop offset="1" stop-color="#FF928E"/>
</linearGradient>
<linearGradient id="paint47_linear_180133_38404" x1="180.679" y1="203.969" x2="194.406" y2="183.446" gradientUnits="userSpaceOnUse">
<stop stop-color="#FEBBBA"/>
<stop offset="1" stop-color="#FF928E"/>
</linearGradient>
<linearGradient id="paint48_linear_180133_38404" x1="39.1358" y1="254.035" x2="95.3182" y2="468.778" gradientUnits="userSpaceOnUse">
<stop stop-color="#4F52FF"/>
<stop offset="1" stop-color="#4042E2"/>
</linearGradient>
<linearGradient id="paint49_linear_180133_38404" x1="94.9234" y1="307.894" x2="12.4427" y2="301.395" gradientUnits="userSpaceOnUse">
<stop stop-color="#FEBBBA"/>
<stop offset="1" stop-color="#FF928E"/>
</linearGradient>
<linearGradient id="paint50_linear_180133_38404" x1="75.5515" y1="261.787" x2="95.9109" y2="223.787" gradientUnits="userSpaceOnUse">
<stop stop-color="#FEBBBA"/>
<stop offset="1" stop-color="#FF928E"/>
</linearGradient>
<linearGradient id="paint51_linear_180133_38404" x1="104.317" y1="223.538" x2="78.048" y2="207.289" gradientUnits="userSpaceOnUse">
<stop stop-color="#FEBBBA"/>
<stop offset="1" stop-color="#FF928E"/>
</linearGradient>
<linearGradient id="paint52_linear_180133_38404" x1="64.3847" y1="189.944" x2="98.3178" y2="217.075" gradientUnits="userSpaceOnUse">
<stop stop-color="#09005D"/>
<stop offset="1" stop-color="#1A0F91"/>
</linearGradient>
<linearGradient id="paint53_linear_180133_38404" x1="97.3478" y1="229.5" x2="73.7134" y2="214.881" gradientUnits="userSpaceOnUse">
<stop stop-color="#FEBBBA"/>
<stop offset="1" stop-color="#FF928E"/>
</linearGradient>
<linearGradient id="paint54_linear_180133_38404" x1="40.0408" y1="347.36" x2="144.07" y2="268.192" gradientUnits="userSpaceOnUse">
<stop stop-color="#09005D"/>
<stop offset="1" stop-color="#1A0F91"/>
</linearGradient>
<linearGradient id="paint55_linear_180133_38404" x1="81.3234" y1="301.676" x2="100.249" y2="301.676" gradientUnits="userSpaceOnUse">
<stop stop-color="#FEBBBA"/>
<stop offset="1" stop-color="#FF928E"/>
</linearGradient>
</defs>
</svg>
