<svg xmlns="http://www.w3.org/2000/svg" width="32" height="32" viewBox="0 0 32 32" fill="none">
<g id="Frame" clip-path="url(#clip0_180264_36056)">
<path id="Vector" d="M19.6747 18.6016C19.6747 17.8038 20.1431 17.1065 20.693 17.1065C21.2428 17.1065 21.7112 17.8003 21.7112 18.6016C21.7112 19.4029 21.2428 20.0966 20.693 20.0966C20.1431 20.0966 19.6747 19.3994 19.6747 18.6016ZM11.3013 14.8935C11.8342 14.8935 12.3196 14.1997 12.3196 13.3984C12.3196 12.5971 11.8512 11.9034 11.3013 11.9034C10.7515 11.9034 10.2831 12.5971 10.2831 13.3984C10.2831 14.1997 10.7684 14.8935 11.3013 14.8935ZM0.714901 14.3627L1.32925 13.8112C1.65823 13.5163 1.88806 13.1231 1.98614 12.6873C2.08422 12.2515 2.04559 11.7952 1.87571 11.383L1.56005 10.6095C1.44617 10.3313 1.39138 10.0316 1.39932 9.73019C1.40725 9.42877 1.47772 9.1325 1.60606 8.86098C1.7344 8.58947 1.9177 8.34891 2.14381 8.1552C2.36993 7.9615 2.63371 7.81907 2.91772 7.73734L3.70856 7.51187C4.12367 7.3913 4.49192 7.14201 4.76247 6.7984C5.03302 6.4548 5.19253 6.03383 5.21896 5.59362L5.26309 4.75764C5.29171 4.21405 5.52293 3.70228 5.90925 3.32747C6.29556 2.95267 6.80764 2.74326 7.34032 2.74228C7.4644 2.74269 7.5882 2.75429 7.71028 2.77696L8.51809 2.92612C8.94735 3.00433 9.3898 2.94298 9.78314 2.7507C10.1765 2.55841 10.5009 2.24489 10.7107 1.85427L11.1011 1.10501C11.2434 0.839453 11.4395 0.608019 11.6764 0.426186C11.9133 0.244353 12.1854 0.116314 12.4746 0.050635C12.7638 -0.0150442 13.0634 -0.0168492 13.3533 0.0453408C13.6432 0.107531 13.9168 0.232281 14.1558 0.411247L14.8346 0.900347C15.1888 1.16012 15.6138 1.29985 16.0498 1.29985C16.4857 1.29985 16.9107 1.16012 17.2649 0.900347L17.9437 0.414716C18.1843 0.237251 18.4593 0.114355 18.7502 0.0542501C19.041 -0.00585425 19.3411 -0.0017806 19.6303 0.0661985C19.9195 0.134178 20.1912 0.264494 20.4271 0.44843C20.6631 0.632365 20.8579 0.865677 20.9984 1.13276L21.3888 1.86814C21.5674 2.20585 21.8321 2.48794 22.1547 2.68456C22.4773 2.88118 22.846 2.98501 23.2216 2.98509C23.3354 2.98428 23.4489 2.97384 23.561 2.95387L24.3383 2.81859C24.4571 2.7977 24.5775 2.78726 24.6981 2.78737C25.233 2.78854 25.747 2.99987 26.1336 3.3776C26.5203 3.75534 26.7501 4.27056 26.7753 4.81661L26.8127 5.65259C26.8336 6.09766 26.9906 6.52481 27.2615 6.87391C27.5325 7.223 27.9038 7.47645 28.3231 7.59859L29.1105 7.82753C29.3954 7.9091 29.66 8.05172 29.8867 8.2459C30.1134 8.44008 30.2971 8.68136 30.4256 8.95372C30.554 9.22607 30.6242 9.52324 30.6316 9.82548C30.6389 10.1277 30.5832 10.4281 30.4682 10.7066L30.1491 11.4767C29.9781 11.8878 29.9378 12.3434 30.034 12.7792C30.1303 13.2149 30.3581 13.6087 30.6854 13.9048L31.2964 14.4599C31.5175 14.6597 31.6947 14.9053 31.816 15.1804C31.9373 15.4555 32 15.7538 32 16.0555C32 16.3572 31.9373 16.6555 31.816 16.9306C31.6947 17.2057 31.5175 17.4513 31.2964 17.6511L30.682 18.2027C30.353 18.4975 30.1232 18.8908 30.0251 19.3266C29.927 19.7624 29.9657 20.2187 30.1355 20.6308L30.4512 21.4044C30.5651 21.6825 30.6199 21.9823 30.6119 22.2837C30.604 22.5851 30.5335 22.8814 30.4052 23.1529C30.2768 23.4244 30.0936 23.665 29.8674 23.8587C29.6413 24.0524 29.3775 24.1948 29.0935 24.2765L28.3027 24.502C27.8833 24.6157 27.5092 24.8602 27.2323 25.2016C26.9555 25.543 26.7898 25.9642 26.7584 26.4064L26.7142 27.2424C26.6856 27.786 26.4544 28.2977 26.0681 28.6725C25.6818 29.0473 25.1697 29.2567 24.637 29.2577C24.5129 29.2573 24.3891 29.2457 24.267 29.223L23.4558 29.0912C23.0265 29.0125 22.5839 29.0736 22.1904 29.2659C21.797 29.4583 21.4726 29.7721 21.2632 30.1631L20.8763 30.895C20.734 31.1605 20.5378 31.392 20.3009 31.5738C20.0641 31.7556 19.7919 31.8837 19.5027 31.9494C19.2135 32.015 18.9139 32.0168 18.624 31.9547C18.3341 31.8925 18.0605 31.7677 17.8215 31.5888L17.1427 31.0997C16.7885 30.8399 16.3635 30.7002 15.9276 30.7002C15.4916 30.7002 15.0666 30.8399 14.7124 31.0997L14.0336 31.5853C13.7932 31.7633 13.5182 31.8867 13.2272 31.9471C12.9362 32.0075 12.636 32.0036 12.3466 31.9356C12.0572 31.8675 11.7855 31.737 11.5496 31.5527C11.3136 31.3685 11.1191 31.1347 10.9789 30.8672L10.5885 30.1319C10.3811 29.74 10.0586 29.4244 9.66651 29.2296C9.27439 29.0349 8.83238 28.9707 8.40269 29.0461L7.639 29.1814C7.52017 29.2023 7.3998 29.2127 7.27922 29.2126C6.74432 29.2115 6.23033 29.0001 5.84367 28.6224C5.457 28.2447 5.22725 27.7294 5.20199 27.1834L5.16126 26.3474C5.14032 25.9023 4.98333 25.4752 4.71237 25.1261C4.44142 24.777 4.07016 24.5235 3.65086 24.4014L2.86341 24.1725C2.57856 24.0909 2.31396 23.9483 2.08722 23.7541C1.86047 23.5599 1.67678 23.3186 1.54835 23.0463C1.41992 22.7739 1.34969 22.4768 1.34235 22.1745C1.335 21.8723 1.3907 21.5719 1.50574 21.2934L1.82479 20.5233C1.99586 20.1122 2.03612 19.6566 1.93988 19.2208C1.84364 18.7851 1.61578 18.3913 1.28852 18.0951L0.677565 17.5401C0.460949 17.3377 0.288628 17.0907 0.171889 16.8155C0.0551494 16.5402 -0.00337458 16.2429 0.000150267 15.9429C0.00367512 15.6429 0.0691693 15.3471 0.192343 15.0748C0.315516 14.8025 0.49359 14.5598 0.714901 14.3627ZM17.5126 18.6016C17.5126 20.6447 18.9314 22.3097 20.676 22.3097C22.4206 22.3097 23.8394 20.6482 23.8394 18.6016C23.8394 16.555 22.4376 14.8935 20.676 14.8935C18.9144 14.8935 17.5126 16.5585 17.5126 18.6016ZM11.9157 21.1789C11.8258 21.3057 11.7634 21.4506 11.7324 21.6039C11.7014 21.7572 11.7026 21.9154 11.7359 22.0682C11.7692 22.221 11.8339 22.3649 11.9256 22.4902C12.0173 22.6156 12.134 22.7197 12.268 22.7956C12.4019 22.8714 12.5501 22.9174 12.7028 22.9304C12.8554 22.9434 13.009 22.9232 13.1534 22.871C13.2979 22.8189 13.4298 22.736 13.5406 22.6279C13.6514 22.5198 13.7384 22.3889 13.796 22.2438L20.0617 10.8211C20.1515 10.6943 20.2139 10.5494 20.2449 10.3961C20.2759 10.2428 20.2747 10.0846 20.2414 9.93176C20.2081 9.77897 20.1435 9.63513 20.0517 9.50976C19.96 9.38438 19.8433 9.28032 19.7094 9.20444C19.5754 9.12857 19.4272 9.08261 19.2745 9.0696C19.1219 9.05659 18.9683 9.07682 18.8239 9.12897C18.6794 9.18112 18.5475 9.26399 18.4367 9.3721C18.326 9.48022 18.2389 9.61113 18.1813 9.75617L11.9157 21.1789ZM8.13455 13.3984C8.13455 15.4415 9.55331 17.1065 11.2979 17.1065C13.0425 17.1065 14.4613 15.445 14.4613 13.3984C14.4613 11.3518 13.0425 9.69027 11.2979 9.69027C9.55331 9.69027 8.13455 11.3553 8.13455 13.3984Z" fill="#ffffff"/>
</g>
<defs fill="#000000">
<clipPath id="clip0_180264_36056" fill="#000000">
<rect width="32" height="32" fill="#ffffff"/>
</clipPath>
</defs>
</svg>